<?xml version="1.0" encoding="utf-8"?>
<!-- Generator: Adobe Illustrator 23.0.0, SVG Export Plug-In . SVG Version: 6.00 Build 0)  -->
<svg version="1.1" id="Слой_1" xmlns="http://www.w3.org/2000/svg" xmlns:xlink="http://www.w3.org/1999/xlink" x="0px" y="0px"
	 viewBox="0 0 612 792" style="enable-background:new 0 0 612 792;" xml:space="preserve">
<style type="text/css">
	.st0{fill:#FDF7F8;}
	.st1{fill:#E40731;}
	.st2{fill:#E3012C;}
	.st3{fill:#E4042E;}
	.st4{fill:#FDF2F4;}
	.st5{fill:#FDF1F3;}
	.st6{fill:#101010;}
	.st7{fill:#FCEFF2;}
</style>
<g>
	<path class="st0" d="M340.55,404.75c0.12,0.07,0.07,0.25-0.07,0.25c-26.17,0-52.34,0.01-78.52-0.04c-1.32,0-2.65-0.62-3.97-0.96
		h8.87c0.07,0,0.13-0.06,0.13-0.13v-7.73c0-0.07-0.06-0.13-0.13-0.13h-8.73c-0.07,0-0.13-0.06-0.13-0.13l0-23.01
		c3.03-2.73,4.56-4.11,7.58-6.84c4.23,0.56,3.3,4.39,4.76,6.71c6,9.48,11.35,19.15,10.11,31.13c-0.01,0.08,0.05,0.15,0.13,0.15h8.36
		c0.09,0,0.15-0.09,0.13-0.17c-3.31-10.97,2.2-19.29,7.28-27.75c0.78-1.29,1.65-2.58,2.12-3.98c0.29-0.87-0.02-1.95-0.1-2.94
		c-0.01-0.08,0.06-0.15,0.14-0.15h6.57c0.11,0,0.18,0.12,0.11,0.21c-0.45,0.61-1.1,1.23-1.11,1.84
		c-0.08,10.94-0.06,21.89-0.06,32.81c0,0.07,0.06,0.13,0.13,0.13h21.71c0.07,0,0.13-0.06,0.13-0.13v-6.73
		c0-0.07-0.06-0.13-0.13-0.13h-12.73c-0.07,0-0.13-0.06-0.13-0.13v-6.73c0-0.07,0.06-0.13,0.13-0.13h9.73
		c0.07,0,0.13-0.06,0.13-0.13v-6.73c0-0.07-0.06-0.13-0.13-0.13h-9.73c-0.07,0-0.13-0.06-0.13-0.13v-5.73
		c0-0.07,0.06-0.13,0.13-0.13l12.88,0c0.09,0,0.15-0.08,0.14-0.17c-0.5-2.88-0.91-5.28-1.32-7.68c-0.01-0.08,0.05-0.16,0.13-0.16
		H342c-0.49,0.34-0.94,0.8-1.49,0.99c-4.4,1.5-6.98,4.6-7.22,9.17c-0.24,4.46,2.26,7.47,6.23,9.32c2.1,0.98,4.32,1.79,6.24,3.05
		c1.05,0.69,1.65,2.07,2.43,3.18c0.05,0.06,0.03,0.15-0.04,0.19c-1.34,0.68-2.79,1.97-3.97,1.77c-2.63-0.45-5.13-1.69-7.85-2.69
		c-0.06-0.02-0.13,0-0.16,0.05c-1.21,1.83-2.41,3.65-3.89,5.89c-0.05,0.07-0.02,0.16,0.05,0.2
		C335.33,401.81,337.95,403.29,340.55,404.75z"/>
	<path class="st1" d="M340.93,404.96c-2.73-1.53-5.46-3.07-8.62-4.84c-0.07-0.04-0.09-0.13-0.05-0.2c1.48-2.24,2.68-4.06,3.89-5.9
		c0.03-0.05,0.1-0.07,0.16-0.05c2.72,1,5.22,2.24,7.85,2.69c1.19,0.2,2.63-1.09,3.97-1.77c0.07-0.04,0.09-0.12,0.04-0.19
		c-0.78-1.11-1.37-2.49-2.43-3.18c-1.92-1.26-4.14-2.07-6.24-3.05c-3.97-1.85-6.46-4.86-6.23-9.32c0.24-4.57,2.82-7.66,7.22-9.17
		c0.53-0.18,0.97-0.63,1.45-0.96c0.02-0.02,0.05-0.02,0.08-0.02h14.66c0.75,1.64,0.85,1.84,1.6,3.48l-5.68,6.61
		c-0.04,0.05-0.11,0.06-0.16,0.04c-1.11-0.52-2.25-1.4-3.42-1.45c-2.21-0.08-4.43,0.3-6.64,0.52c-0.11,0.01-0.16,0.13-0.09,0.21
		c1.37,1.61,2.5,3.66,4.23,4.59c4.14,2.23,8.61,3.86,10.38,8.77c-0.91,2.8-1.74,5.34-2.65,8.14c-2.25,1.57-4.5,3.15-6.74,4.72
		C345.38,404.74,343.07,404.85,340.93,404.96z"/>
	<path class="st2" d="M324.82,369.11c0.42,2.41,0.83,4.82,1.33,7.72c0.01,0.09-0.05,0.17-0.14,0.17l-12.88,0
		c-0.07,0-0.13,0.06-0.13,0.13v5.73c0,0.07,0.06,0.13,0.13,0.13h9.73c0.07,0,0.13,0.06,0.13,0.13v6.73c0,0.07-0.06,0.13-0.13,0.13
		h-9.73c-0.07,0-0.13,0.06-0.13,0.13v6.73c0,0.07,0.06,0.13,0.13,0.13h12.73c0.07,0,0.13,0.06,0.13,0.13v6.73
		c0,0.07-0.06,0.13-0.13,0.13h-21.71c-0.07,0-0.13-0.06-0.13-0.13c0-10.93-0.02-21.87,0.06-32.81c0-0.67,0.77-1.33,1.22-2
		c0.02-0.04,0.06-0.06,0.11-0.06h19.28C324.75,369,324.8,369.05,324.82,369.11z"/>
	<path class="st3" d="M298.01,369c0.07,0,0.13,0.05,0.13,0.12c0.08,1,0.39,2.09,0.1,2.97c-0.47,1.41-1.34,2.69-2.12,3.98
		c-5.07,8.46-10.59,16.79-7.28,27.75c0.03,0.09-0.04,0.17-0.13,0.17h-8.36c-0.08,0-0.14-0.07-0.13-0.15
		c1.24-11.98-4.11-21.65-10.11-31.13c-0.65-1.02-0.83-2.35-1.19-3.55c-0.03-0.09,0.04-0.17,0.13-0.17h7.81
		c0.05,0,0.09,0.03,0.12,0.07l6.99,12.65c0.05,0.09,0.19,0.09,0.24,0c2.35-4.35,4.58-8.5,6.82-12.65c0.02-0.04,0.07-0.07,0.12-0.07
		H298.01z"/>
	<path class="st4" d="M357,391.07c0,0.15-0.2,0.18-0.26,0.05c-1.88-4.55-6.19-6.15-10.2-8.3c-1.73-0.93-2.86-2.98-4.23-4.59
		c-0.07-0.08-0.02-0.2,0.09-0.21c2.22-0.22,4.44-0.6,6.64-0.52c1.17,0.04,2.31,0.93,3.42,1.45c0.06,0.03,0.12,0.01,0.16-0.04
		l4.14-4.81c0.08-0.09,0.24-0.04,0.24,0.09V391.07z"/>
	<path class="st5" d="M290.77,369c0.1,0,0.17,0.11,0.12,0.2c-2.19,4.07-4.39,8.14-6.69,12.41c-0.05,0.09-0.19,0.1-0.24,0
		l-6.85-12.41c-0.05-0.09,0.02-0.2,0.12-0.2H290.77z"/>
	<path class="st6" d="M258.13,396h8.73c0.07,0,0.13,0.06,0.13,0.13v7.73c0,0.07-0.06,0.13-0.13,0.13h-8.73
		c-0.07,0-0.13-0.06-0.13-0.13v-7.73C258,396.06,258.06,396,258.13,396z"/>
	<path class="st7" d="M347.35,404.76c3.15-2.2,6.29-4.4,9.44-6.61c0.09-0.06,0.21,0,0.21,0.11v6.61c0,0.07-0.06,0.13-0.13,0.13
		h-9.44C347.3,405,347.24,404.83,347.35,404.76z"/>
</g>
</svg>
