<?xml version="1.0" encoding="utf-8"?>
<!-- Generator: Adobe Illustrator 22.0.1, SVG Export Plug-In . SVG Version: 6.00 Build 0)  -->
<svg version="1.1" id="Слой_1" xmlns="http://www.w3.org/2000/svg" xmlns:xlink="http://www.w3.org/1999/xlink" x="0px" y="0px"
	 viewBox="0 0 180 61.3" style="enable-background:new 0 0 180 61.3;" xml:space="preserve">
<style type="text/css">
	.st0{fill:#E6E6E6;}
	.st1{fill:#FFFFFF;}
	.st2{fill:#D13834;}
	.st3{fill:#436B1C;}
	.st4{fill:#ED3F32;}
	.st5{fill:#659C35;}
	.st6{fill:#88C057;}
	.st7{fill:#A46F3E;}
	.st8{fill:#FBD490;}
</style>
<g>
	<g>
		<path class="st0" d="M30.4,53.2h10.3c0.9,0,1.5-1,1-1.9l0,0c-0.7-1.1-0.8-2.6-0.2-3.7c0.5-1,1.4-1.9,2.4-2.4
			c7.3-3.5,12.5-7.5,13-15.6c0.1-0.8-0.5-1.4-1.3-1.4H30.4H4.3c-0.8,0-1.3,0.7-1.3,1.4c0.5,8.1,5.7,12,13,15.6
			c1.1,0.5,1.9,1.4,2.4,2.4c0.6,1.2,0.5,2.6-0.2,3.7l0,0c-0.5,0.8,0.1,1.9,1,1.9C19.2,53.2,30.4,53.2,30.4,53.2z"/>
		<path class="st1" d="M37,47.4h-8.2c-0.5,0-0.9-0.4-0.9-1s0.4-1,0.9-1H37c0.5,0,0.9,0.4,0.9,1S37.5,47.4,37,47.4z"/>
		<path class="st1" d="M26,47.4h-3.2c-0.5,0-0.9-0.4-0.9-1s0.4-1,0.9-1H26c0.5,0,0.9,0.4,0.9,1S26.5,47.4,26,47.4z"/>
		<path class="st1" d="M37,50.3H22.8c-0.5,0-0.9-0.4-0.9-1c0-0.5,0.4-1,0.9-1H37c0.5,0,0.9,0.4,0.9,1C37.9,49.9,37.5,50.3,37,50.3z"
			/>
		<path class="st2" d="M41.7,5.2c-4.7,0-8.5,3.9-8.5,8.6c0,0.7,0.1,1.3,0.2,2c0.5,0.5,1.2,0.7,1.8,0.4l0.4-0.2
			c1-0.5,2.2,0.2,2.3,1.4l0,0.4c0.1,0.8,0.7,1.4,1.5,1.5l0.4,0c1.1,0.1,1.8,1.3,1.3,2.4L41.1,22C41,22.1,41,22.3,41,22.4
			c0.2,0,0.5,0,0.7,0c4.7,0,8.5-3.9,8.5-8.6C50.2,9,46.4,5.2,41.7,5.2z"/>
		<path class="st3" d="M50.2,14.3c-0.3,4.5-3.9,8.1-8.5,8.1c-0.2,0-0.5,0-0.7,0c-0.1,0.6,0.1,1.3,0.6,1.7l0.3,0.2
			c0.9,0.7,0.9,2.1,0,2.7l-0.3,0.2c-0.3,0.2-0.5,0.5-0.6,0.9c0,0,0,0,0,0h12.6c1.3-1.5,2.2-3.5,2.2-5.8
			C55.9,18.7,53.5,15.5,50.2,14.3z"/>
		<path class="st4" d="M40.4,13.4c-0.2,0-0.5-0.1-0.7-0.3L37,10.4c-0.4-0.4-0.4-1,0-1.4c0.4-0.4,1-0.4,1.3,0l2.7,2.7
			c0.4,0.4,0.4,1,0,1.4C40.8,13.3,40.6,13.4,40.4,13.4z"/>
		<path class="st4" d="M45.7,18.8c-0.2,0-0.5-0.1-0.7-0.3l-2.7-2.7c-0.4-0.4-0.4-1,0-1.4s1-0.4,1.3,0l2.7,2.7c0.4,0.4,0.4,1,0,1.4
			C46.2,18.7,45.9,18.8,45.7,18.8z"/>
		<path class="st4" d="M43,13.4c-0.2,0-0.5-0.1-0.7-0.3c-0.4-0.4-0.4-1,0-1.4L45,9.1c0.4-0.4,1-0.4,1.3,0c0.4,0.4,0.4,1,0,1.4
			l-2.7,2.7C43.5,13.3,43.3,13.4,43,13.4z"/>
		<path class="st4" d="M38.2,18.4c-0.2,0-0.5-0.1-0.7-0.3c-0.4-0.4-0.4-1,0-1.4l2.2-2.2c0.4-0.4,1-0.4,1.3,0s0.4,1,0,1.4l-2.2,2.2
			C38.6,18.3,38.4,18.4,38.2,18.4z"/>
		<path class="st5" d="M53,22.4h-3.8c-0.5,0-0.9-0.4-0.9-1c0-0.5,0.4-1,0.9-1H53c0.5,0,0.9,0.4,0.9,1C54,22,53.5,22.4,53,22.4z"/>
		<path class="st5" d="M47.4,28.2c-0.5,0-0.9-0.4-0.9-1v-3.8c0-0.5,0.4-1,0.9-1s0.9,0.4,0.9,1v3.8C48.3,27.8,47.9,28.2,47.4,28.2z"
			/>
		<path class="st6" d="M25.1,19.4c0.9,0.3,1.4,1.4,1,2.3L26,22c-0.3,0.7-0.1,1.6,0.5,2.1l0.3,0.2c0.9,0.7,0.9,2.1,0,2.7l-0.3,0.2
			c-0.3,0.2-0.5,0.6-0.6,0.9h4.5H41c0.1-0.4,0.3-0.7,0.6-0.9l0.3-0.2c0.9-0.7,0.9-2.1,0-2.7l-0.3-0.2c-0.6-0.5-0.9-1.3-0.5-2.1
			l0.2-0.4c0.5-1-0.2-2.3-1.3-2.4l-0.4,0c-0.8-0.1-1.4-0.7-1.5-1.5l0-0.4c-0.1-1.1-1.3-1.8-2.3-1.4l-0.4,0.2c-0.7,0.3-1.6,0.1-2-0.6
			L33,15.2c-0.7-0.9-2-0.9-2.7,0l-0.2,0.3c-0.5,0.7-1.3,0.9-2,0.6L27.7,16c-1-0.5-2.2,0.2-2.3,1.4l0,0.4c0,0.4-0.2,0.9-0.4,1.2
			C24.9,19.1,25,19.3,25.1,19.4z"/>
		<path class="st7" d="M14.8,15l5.4-7.8c0.9-1.3,2.7-1.6,3.9-0.7l0,0c1.3,0.9,1.6,2.7,0.7,4l-5.4,7.8c-0.9,1.3-2.7,1.6-3.9,0.7l0,0
			C14.2,18.1,13.9,16.3,14.8,15z"/>
		<path class="st8" d="M26.8,24.3l-0.3-0.2c-0.6-0.5-0.9-1.3-0.5-2.1l0.2-0.4c0.5-1-0.2-2.3-1.3-2.4l-0.4,0
			c-0.8-0.1-1.4-0.7-1.5-1.5l0-0.4c-0.1-0.9-0.8-1.5-1.6-1.5l-1.8,2.5c-0.9,1.3-2.7,1.6-3.9,0.7l0,0c-1-0.7-1.4-1.9-1.1-3
			c-0.4,0.2-1,0.3-1.4,0L12.6,16c-1-0.5-2.2,0.2-2.3,1.4l0,0.4c-0.1,0.8-0.7,1.4-1.5,1.5l-0.4,0c-1.1,0.1-1.8,1.3-1.3,2.4L7.2,22
			c0.3,0.7,0.1,1.6-0.5,2.1l-0.3,0.2c-0.9,0.7-0.9,2.1,0,2.7l0.3,0.2c0.3,0.2,0.5,0.6,0.6,0.9h18.6c0.1-0.4,0.3-0.7,0.6-0.9l0.3-0.2
			C27.8,26.4,27.8,25,26.8,24.3z"/>
		<path class="st3" d="M30.8,22c-0.2,0-0.5-0.1-0.7-0.3c-0.4-0.4-0.4-1,0-1.4l1.4-1.4c0.4-0.4,1-0.4,1.3,0c0.4,0.4,0.4,1,0,1.4
			l-1.4,1.4C31.3,21.9,31.1,22,30.8,22z"/>
		<path class="st3" d="M36,24.4c-0.2,0-0.5-0.1-0.7-0.3l-0.9-1c-0.4-0.4-0.4-1,0-1.4c0.4-0.4,1-0.4,1.3,0l0.9,1c0.4,0.4,0.4,1,0,1.4
			C36.5,24.3,36.3,24.4,36,24.4z"/>
		<path class="st3" d="M31.3,26.3c-0.2,0-0.5-0.1-0.7-0.3c-0.4-0.4-0.4-1,0-1.4l0.9-1c0.4-0.4,1-0.4,1.3,0c0.4,0.4,0.4,1,0,1.4
			L32,26C31.8,26.2,31.6,26.3,31.3,26.3z"/>
	</g>
	<g>
	</g>
	<g>
	</g>
	<g>
	</g>
	<g>
	</g>
	<g>
	</g>
	<g>
	</g>
	<g>
	</g>
	<g>
	</g>
	<g>
	</g>
	<g>
	</g>
	<g>
	</g>
	<g>
	</g>
	<g>
	</g>
	<g>
	</g>
	<g>
	</g>
</g>
<g>
	<path class="st1" d="M82.4,9v1.7L80.9,11v12.2H78l-5.7-9.6l-0.1,0v7.6l1.5,0.3v1.7h-5.9v-1.7l1.5-0.3V11l-1.5-0.3V9h1.5h2.9
		l5.7,9.6l0.1,0V11l-1.5-0.3V9h4.4H82.4z"/>
	<path class="st1" d="M83.3,23.2v-1.7l1.5-0.3V11l-1.5-0.3V9h1.5h2.9h1.5v1.7L87.7,11v10h4l0.1-1.8H94v4H83.3z"/>
	<path class="st1" d="M100,21.5l1.5-0.3V11l-1.5-0.3V9h11.3v3.9h-2.2l-0.1-1.7h-4.6v3.9h5v2.2h-5v3.9l1.5,0.3v1.7H100V21.5z"/>
	<path class="st1" d="M109.2,21.5l1-0.1L114.6,9h2.9l4.3,12.4l1,0.1v1.7H118v-1.7l1-0.2l-0.6-2h-4.6l-0.6,2l1,0.2v1.7h-4.8V21.5z
		 M114.4,17.3h3.3l-1.6-5H116L114.4,17.3z"/>
	<path class="st1" d="M137.5,12.7L137.5,12.7l-3.9,10.5h-1.9l-3.8-10.5l-0.1,0l0.3,6.2v2.2l1.5,0.3v1.7h-5.9v-1.7l1.5-0.3V11
		l-1.5-0.3V9h1.5h3.7l3.6,10.5h0.1L136.3,9h5.3v1.7L140,11v10.2l1.5,0.3v1.7h-5.9v-1.7l1.5-0.3V19L137.5,12.7z"/>
	<path class="st1" d="M142.6,10.7V9h5.9v1.7l-1.5,0.3v10.2l1.5,0.3v1.7h-5.9v-1.7l1.5-0.3V11L142.6,10.7z"/>
	<path class="st1" d="M149.5,23.2v-1.7l1.5-0.3V11l-1.5-0.3V9h1.5h2.9h1.5v1.7l-1.5,0.3v10h4l0.1-1.8h2.2v4H149.5z"/>
	<path class="st1" d="M163.7,10.7l-1.2,0.2l2.2,4.7h0.1l2.2-4.7l-1.2-0.2V9h5.4v1.7l-1.2,0.2l-3.9,7.3v3l1.5,0.3v1.7h-5.9v-1.7
		l1.5-0.3v-3.1l-3.8-7.2l-1.2-0.2V9h5.4V10.7z"/>
</g>
<g>
	<path class="st1" d="M67.7,49.5l1-0.1L73.1,37H76l4.3,12.4l1,0.1v1.7h-4.8v-1.7l1-0.2l-0.6-2h-4.6l-0.6,2l1,0.2v1.7h-4.8V49.5z
		 M72.9,45.3h3.3l-1.6-5h-0.1L72.9,45.3z"/>
	<path class="st1" d="M82.2,51.2v-1.7l1.5-0.3V39l-1.5-0.3V37h1.5h2.9h1.5v1.7L86.6,39v10h4l0.1-1.8h2.2v4H82.2z"/>
	<path class="st1" d="M107.7,40.7L107.7,40.7l-3.9,10.5h-1.9l-3.8-10.5l-0.1,0l0.3,6.2v2.2l1.5,0.3v1.7H94v-1.7l1.5-0.3V39L94,38.7
		V37h1.5h3.7l3.6,10.5h0.1l3.7-10.5h5.3v1.7l-1.5,0.3v10.2l1.5,0.3v1.7h-5.9v-1.7l1.5-0.3V47L107.7,40.7z"/>
	<path class="st1" d="M112.7,49.5l1-0.1L118,37h2.9l4.3,12.4l1,0.1v1.7h-4.8v-1.7l1-0.2l-0.6-2h-4.6l-0.6,2l1,0.2v1.7h-4.8V49.5z
		 M117.8,45.3h3.3l-1.6-5h-0.1L117.8,45.3z"/>
	<path class="st1" d="M138.2,37v3.8H136l-0.1-1.6h-2.6v10l1.5,0.3v1.7h-5.9v-1.7l1.5-0.3v-10h-2.6l-0.1,1.6h-2.2V37H138.2z"/>
	<path class="st1" d="M144.5,38.7l-1.2,0.2l2.2,4.7h0.1l2.2-4.7l-1.2-0.2V37h5.4v1.7l-1.2,0.2l-3.9,7.3v3l1.5,0.3v1.7h-5.9v-1.7
		l1.5-0.3v-3.1l-3.8-7.2l-1.2-0.2V37h5.4V38.7z"/>
</g>
<rect x="68" y="30.2" class="st1" width="97" height="1"/>
</svg>
