<?xml version="1.0" encoding="utf-8"?>
<!-- Generator: Adobe Illustrator 22.0.1, SVG Export Plug-In . SVG Version: 6.00 Build 0)  -->
<svg version="1.1" id="Слой_1" xmlns="http://www.w3.org/2000/svg" xmlns:xlink="http://www.w3.org/1999/xlink" x="0px" y="0px"
	 viewBox="0 0 156 36" style="enable-background:new 0 0 156 36;" xml:space="preserve">
<g>
	<g>
		<g>
			<path d="M35.3,13.4c-0.8-0.3-2.7-1.3-3.5-1.8c-0.5-0.4-1.1,0.7-0.7,1.1c2.3,1.2,5.6,2.1,7.4,1.7"/>
			<path d="M26.6,8.5c-0.9-0.9-2.1-1.1-3.3-1.8c-1.2-0.7-2.2-2-3.4-2.7c-0.6-0.4-1.6,0.5-1,0.9c1.2,0.7,2.6,1.8,3.9,2.5
				c1.1,0.6,2.4,1.5,3.8,1.9C27.2,9.8,27.1,9,26.6,8.5z"/>
			<path d="M119.1,14.8L119.1,14.8"/>
		</g>
	</g>
</g>
<path d="M51.5,17.7c-1.5,0.1-2.4-0.4-3.9-0.8c-1.5-0.3-2.9-0.9-4.3-1.2c-0.7-0.2-1.4,0.6-0.6,0.8c1.5,0.3,2.2,1.2,4.7,1.4
	c1.3,0.1,2.9,0.8,4.4,0.8C52.6,18.8,52.2,18.1,51.5,17.7z"/>
<path d="M109,11.1c-1.4,0.3-2.2,1.3-3.6,2c-1.4,0.7-3.2,0.8-4.6,1.6c-0.7,0.4-0.2,1.8,0.5,1.4c1.4-0.7,3.3-1.4,4.7-2.1
	c1.2-0.6,2.8-1.4,4-2.4C110.7,11.2,109.8,10.9,109,11.1z"/>
<path d="M80.6,18c-1.4-0.3-2.5,0.2-4.1,0.2c-1.5,0-3.3-0.7-4.8-0.7c-0.8,0-0.9,1.5-0.2,1.5c1.5,0,3.6,0.2,5.1,0.2
	c1.3,0,3.1,0,4.6-0.3C82,18.9,81.4,18.2,80.6,18z"/>
<path d="M95,16c-1.4-0.1-2,0.9-3.5,1.2c-1.5,0.2-2.5,0.8-4.9,0c-0.7-0.3-0.7,1.6,0,1.5c1.5-0.2,3.6-0.3,5.1-0.5
	c1.3-0.2,3.1-0.4,4.5-1C97,17.1,95.8,16.1,95,16z"/>
<path d="M66.6,18c-1.4-0.3-2.5,0.2-4.1,0.2c-1.5,0-3.3-0.7-4.8-0.7c-0.8,0-0.9,1.5-0.2,1.5c1.5,0,3.6,0.2,5.1,0.2
	c1.3,0,3.1,0,4.6-0.3C68,18.9,67.4,18.2,66.6,18z"/>
<path d="M121.8,3.8c-1.3,0.4-2.1,1.5-3.4,2.3S115.3,7.2,114,8c-0.7,0.4,0,1.8,0.6,1.4c1.3-0.8,3.2-1.7,4.5-2.5
	c1.1-0.7,2.7-1.6,3.8-2.7C123.5,3.8,122.6,3.5,121.8,3.8z"/>
</svg>
