<?xml version="1.0" encoding="utf-8"?>
<!-- Generator: Adobe Illustrator 22.0.1, SVG Export Plug-In . SVG Version: 6.00 Build 0)  -->
<svg version="1.1" id="Слой_2" xmlns="http://www.w3.org/2000/svg" xmlns:xlink="http://www.w3.org/1999/xlink" x="0px" y="0px"
	 viewBox="0 0 156 36" style="enable-background:new 0 0 156 36;" xml:space="preserve">
<g>
	<g>
		<g>
			<path d="M111.6,17.4c0.8,0.4,2.7,1.7,3.4,2.2c0.5,0.5,1.2-0.8,0.7-1.3c-2.3-1.5-5.5-2.7-7.4-2.2"/>
			<path d="M120.2,23.4c0.9,1,2.1,1.3,3.3,2.2c1.2,0.9,2.1,2.4,3.3,3.3c0.6,0.4,1.6-0.6,1-1c-1.2-0.9-2.6-2.2-3.8-3.1
				c-1.1-0.8-2.4-1.8-3.7-2.4C119.6,21.9,119.7,22.8,120.2,23.4z"/>
			<path d="M124.1,23.1L124.1,23.1"/>
		</g>
	</g>
</g>
<path d="M95.4,11.9c1.5-0.1,2.4,0.6,3.9,1c1.4,0.4,2.8,1.1,4.3,1.6c0.7,0.2,1.4-0.7,0.6-0.9c-1.4-0.4-2.2-1.5-4.7-1.8
	c-1.3-0.1-2.9-1-4.4-1C94.4,10.6,94.8,11.4,95.4,11.9z"/>
<path d="M37.8,18.7c1.4-0.4,2.2-1.5,3.6-2.4c1.4-0.8,3.3-1,4.6-1.8c0.7-0.4,0.2-2.1-0.5-1.7c-1.4,0.8-3.3,1.6-4.7,2.4
	c-1.2,0.7-2.8,1.6-4,2.8C36.2,18.5,37,18.9,37.8,18.7z"/>
<path d="M66.4,11c1.4,0.4,2.5-0.2,4.1-0.2c1.5,0,3.3,0.9,4.8,0.9c0.8,0,1-1.8,0.2-1.8c-1.5,0-3.6-0.3-5.1-0.3
	c-1.3,0-3.1-0.1-4.6,0.3C65,9.9,65.6,10.7,66.4,11z"/>
<path d="M51.9,13.1c1.4,0.2,2-1.1,3.5-1.3c1.5-0.3,2.5-1,4.9,0.1c0.7,0.3,0.8-1.9,0-1.8c-1.5,0.3-3.6,0.2-5.1,0.5
	c-1.3,0.2-3.1,0.4-4.5,1.1C49.9,11.8,51.1,13,51.9,13.1z"/>
<path d="M80.4,11.3c1.4,0.4,2.5-0.2,4.1-0.2c1.5,0,3.3,0.9,4.8,0.9c0.8,0,1-1.8,0.2-1.8c-1.5,0-3.6-0.3-5.1-0.3
	c-1.3,0-3.1-0.1-4.6,0.3C79,10.2,79.6,11,80.4,11.3z"/>
<path d="M24.9,27.3c1.4-0.5,2.1-1.7,3.4-2.7s3.2-1.3,4.5-2.2c0.7-0.5,0.1-2.1-0.6-1.6c-1.3,1-3.2,1.9-4.5,2.9
	c-1.2,0.8-2.7,1.9-3.8,3.2C23.3,27.2,24.1,27.5,24.9,27.3z"/>
</svg>
