<?xml version="1.0" encoding="utf-8"?>
<!-- Generator: Adobe Illustrator 22.0.1, SVG Export Plug-In . SVG Version: 6.00 Build 0)  -->
<svg version="1.1" xmlns="http://www.w3.org/2000/svg" xmlns:xlink="http://www.w3.org/1999/xlink" x="0px" y="0px"
	 viewBox="0 0 298 116" style="enable-background:new 0 0 298 116;" xml:space="preserve">
<g id="Слой_1">
	<g>
		<path d="M48,10.1c0,0.2,0,0.6-0.1,0.9c-0.1,0.4-0.1,0.8-0.2,1.3c-0.1,0.5-0.2,1-0.3,1.5c-0.1,0.5-0.2,1.1-0.3,1.7
			s-0.2,1.2-0.3,1.8s-0.2,1.3-0.2,1.9c0,0,0,0.2,0,0.4s0,0.5-0.1,0.8c0,0.3,0,0.7-0.1,1.1c0,0.4-0.1,0.8-0.1,1.2s0,0.8,0,1.2
			c0,0.4,0,0.8,0,1.1c0,0.2,0,0.3-0.1,0.5c-0.1,0.2-0.2,0.3-0.3,0.4c-0.1,0.1-0.3,0.2-0.4,0.3s-0.3,0.1-0.4,0.1
			c-0.1,0-0.2,0-0.3-0.1s-0.2-0.1-0.3-0.2c-0.1-0.1-0.2-0.2-0.2-0.3c-0.1-0.1-0.1-0.2-0.1-0.4c0-0.1,0-0.3,0-0.6
			c0-0.3,0.1-0.6,0.1-0.9s0.1-0.8,0.2-1.2c0.1-0.4,0.1-0.8,0.2-1.2s0.1-0.8,0.1-1.1s0-0.6,0-0.8c0-0.2-0.1-0.3-0.2-0.4
			s-0.3-0.1-0.4-0.1c-0.2,0-0.5,0-0.9,0c-0.4,0-0.7,0.1-1.1,0.1c-0.4,0-0.8,0.1-1.1,0.1s-0.7,0-0.9,0c0,0-0.2,0-0.4,0
			c-0.2,0-0.5,0-0.8,0s-0.6,0-0.9,0.1s-0.6,0-0.9,0.1c-0.3,0-0.5,0.1-0.7,0.1c-0.2,0-0.3,0.1-0.4,0.1c0,0-0.1,0.1-0.1,0.3
			c0,0.1-0.1,0.3-0.1,0.5s-0.1,0.4-0.1,0.7c0,0.2-0.1,0.5-0.1,0.7c0,0.2-0.1,0.5-0.1,0.7s0,0.4,0,0.6c0,0.4,0,0.8,0,1.2
			c0,0.4-0.1,0.7-0.1,1.1s-0.2,0.6-0.3,0.7c-0.1,0.2-0.3,0.3-0.6,0.3c-0.1,0-0.2,0-0.3-0.1c-0.1-0.1-0.3-0.2-0.4-0.3
			s-0.2-0.3-0.3-0.4s-0.1-0.3-0.1-0.4c0-0.1,0-0.3,0-0.5s0.1-0.3,0.1-0.5s0.1-0.3,0.1-0.5s0.1-0.3,0.1-0.4c0.1-0.4,0.2-1,0.3-1.5
			c0.1-0.6,0.2-1.2,0.3-1.9c0.1-0.7,0.2-1.4,0.3-2.1s0.2-1.5,0.3-2.2s0.2-1.5,0.3-2.3s0.2-1.5,0.2-2.2c0-0.1,0-0.2,0.1-0.3
			c0-0.1,0.1-0.2,0.2-0.2c0.1-0.1,0.2-0.1,0.3-0.2s0.2,0,0.3,0c0.3,0.1,0.6,0.2,0.7,0.3c0.2,0.2,0.2,0.4,0.3,0.6c0,0.5,0,1-0.1,1.5
			c-0.1,0.5-0.2,1.1-0.3,1.6c-0.1,0.5-0.2,1.1-0.3,1.6c-0.1,0.5-0.1,1-0.1,1.5c0,0.1,0.1,0.2,0.1,0.2c0.1,0.1,0.2,0.1,0.3,0.1
			s0.2,0,0.4,0.1s0.2,0,0.3,0c0.1,0,0.4,0,0.8,0c0.4,0,0.9,0,1.4-0.1c0.5,0,1.1-0.1,1.7-0.1c0.6-0.1,1.1-0.1,1.7-0.2
			c0.5-0.1,0.9-0.2,1.3-0.3c0.4-0.1,0.6-0.2,0.7-0.3c0-0.1,0.1-0.2,0.2-0.5c0.1-0.2,0.1-0.5,0.2-0.9s0.1-0.8,0.2-1.2
			c0.1-0.4,0.1-0.9,0.2-1.4c0.1-0.5,0.1-1,0.1-1.5c0-0.5,0-1,0-1.5c0-0.1,0-0.1,0.1-0.2s0.1-0.2,0.2-0.3c0.1-0.1,0.2-0.2,0.3-0.2
			s0.3-0.1,0.4-0.1c0.1,0,0.2,0,0.3,0c0.1,0,0.2,0.1,0.3,0.1s0.2,0.1,0.3,0.2S47.9,10,48,10.1z"/>
		<path d="M65.5,19.4c0,0.1-0.1,0.2-0.2,0.4c-0.1,0.2-0.3,0.5-0.6,0.8s-0.6,0.7-0.9,1c-0.4,0.4-0.8,0.8-1.2,1.1
			c-0.5,0.4-1,0.8-1.4,1.1c-0.4,0.3-0.8,0.5-1.1,0.7s-0.6,0.3-0.9,0.3c-0.3,0.1-0.5,0.1-0.7,0.1c-0.3,0-0.6,0-0.8-0.1
			c-0.2-0.1-0.5-0.3-0.6-0.5s-0.3-0.5-0.5-0.8s-0.2-0.8-0.3-1.3h-0.1c-0.3,0.4-0.6,0.9-0.9,1.3c-0.3,0.4-0.7,0.8-1.1,1.1
			c-0.4,0.3-0.7,0.6-1.1,0.8s-0.8,0.3-1.1,0.3c-0.2,0-0.4,0-0.6-0.1c-0.2-0.1-0.4-0.2-0.6-0.3s-0.3-0.4-0.5-0.6
			c-0.1-0.2-0.2-0.5-0.2-0.9c0-0.3,0-0.6,0.1-1c0.1-0.4,0.2-0.8,0.3-1.2c0.1-0.4,0.3-0.8,0.4-1.3c0.2-0.4,0.3-0.8,0.5-1.2
			s0.4-0.7,0.6-1s0.4-0.6,0.6-0.7c0.2-0.2,0.4-0.4,0.7-0.7c0.3-0.2,0.6-0.4,0.9-0.6s0.7-0.3,1.1-0.5c0.4-0.1,0.8-0.2,1.2-0.2
			c0.3,0,0.6,0.1,0.8,0.3s0.3,0.6,0.4,1c0,0,0,0.1,0.1,0.1s0.1,0.1,0.1,0.2c0.1,0.1,0.1,0.1,0.1,0.2c0,0.1,0.1,0.1,0.1,0.2
			c0,0.1,0,0.2-0.1,0.4s-0.1,0.3-0.2,0.5c-0.1,0.2-0.1,0.4-0.2,0.7c0,0.2-0.1,0.5-0.1,0.7c0,0.4,0,0.7,0,1.1s0,0.8,0.1,1.1
			c0.1,0.3,0.2,0.6,0.4,0.8s0.4,0.3,0.7,0.3c0.3,0,0.8-0.2,1.3-0.5s1.2-0.7,1.9-1.3c0.4-0.4,0.9-0.7,1.2-1.1s0.7-0.7,1-1
			s0.6-0.5,0.8-0.7s0.4-0.3,0.5-0.3c0.1,0,0.2,0,0.2,0.1c0,0,0,0.1,0,0.2c0,0,0,0,0,0.1c0,0,0,0.1,0,0.1S65.6,19.3,65.5,19.4
			C65.5,19.4,65.5,19.4,65.5,19.4z M56.3,17.9c0-0.1,0-0.1-0.1-0.2c-0.1-0.1-0.1-0.2-0.2-0.2s-0.2-0.1-0.3-0.2s-0.2-0.1-0.3-0.1
			c-0.2,0-0.4,0-0.6,0.1c-0.2,0.1-0.4,0.2-0.5,0.3s-0.3,0.2-0.4,0.4c-0.1,0.1-0.3,0.3-0.4,0.4c-0.2,0.3-0.5,0.7-0.8,1.2
			c-0.3,0.5-0.5,0.9-0.7,1.4c-0.2,0.5-0.4,1-0.5,1.5c-0.1,0.5-0.2,0.9-0.2,1.3c0,0.2,0.1,0.4,0.3,0.5s0.4,0.2,0.7,0.2
			c0.2,0,0.4-0.1,0.6-0.2c0.2-0.1,0.5-0.3,0.7-0.6c0.2-0.2,0.5-0.5,0.7-0.8c0.2-0.3,0.5-0.6,0.6-1c0.3-0.6,0.6-1.2,0.9-1.9
			C56.2,19.2,56.3,18.6,56.3,17.9z"/>
		<path d="M70.2,23.9c-0.2,0.3-0.5,0.6-0.8,0.9c-0.3,0.3-0.6,0.6-1,0.8s-0.7,0.4-1.1,0.5c-0.4,0.1-0.8,0.2-1.2,0.1
			c-0.3,0-0.6-0.1-0.8-0.3c-0.3-0.2-0.5-0.4-0.7-0.7s-0.4-0.7-0.5-1.1s-0.2-1-0.2-1.6c0-0.4,0-0.8,0.1-1.2c0-0.4,0.1-0.9,0.2-1.3
			s0.1-0.9,0.2-1.3s0.2-0.8,0.3-1.2c0.1-0.5,0.3-1,0.4-1.5c0.2-0.5,0.4-0.9,0.6-1.4c0.2-0.4,0.5-0.9,0.7-1.3s0.5-0.8,0.8-1.1
			c0.4-0.4,0.8-0.8,1.3-1c0.5-0.3,1-0.4,1.7-0.4c0.3,0,0.5,0.1,0.7,0.2s0.4,0.3,0.6,0.4c0.2,0.2,0.3,0.4,0.4,0.6s0.1,0.4,0.1,0.6
			c0,0.3-0.1,0.6-0.2,1c-0.1,0.4-0.3,0.7-0.5,1.1s-0.5,0.8-0.8,1.2s-0.7,0.8-1.1,1.1c0.1,0,0.2,0,0.3,0s0.3,0.1,0.4,0.1
			c0.1,0.1,0.3,0.1,0.4,0.2c0.1,0.1,0.3,0.2,0.4,0.4c0.1,0.1,0.1,0.2,0.2,0.3s0.1,0.3,0.2,0.5c0.1,0.2,0.1,0.4,0.2,0.6
			c0,0.2,0.1,0.5,0.1,0.8c0,0.5-0.1,1.1-0.3,1.8C71.1,22.5,70.7,23.2,70.2,23.9z M69.9,20.1c0-0.4-0.1-0.7-0.2-0.9
			c-0.1-0.3-0.2-0.5-0.4-0.6c-0.2-0.2-0.3-0.3-0.5-0.3c-0.2-0.1-0.3-0.1-0.4-0.1c-0.1,0-0.2,0.1-0.4,0.2s-0.4,0.3-0.6,0.5
			c-0.2,0.1-0.3,0.3-0.5,0.4s-0.3,0.2-0.5,0.4c-0.1,0.1-0.3,0.2-0.4,0.3s-0.2,0.2-0.3,0.4c-0.2,0.3-0.3,0.7-0.3,1.2
			s-0.1,0.9-0.1,1.4c0,0.3,0,0.6,0.1,0.8c0.1,0.2,0.1,0.4,0.2,0.6c0.1,0.2,0.2,0.3,0.3,0.4c0.1,0.1,0.2,0.1,0.3,0.1
			c0.2,0,0.5,0,0.8-0.1s0.6-0.3,0.9-0.6c0.3-0.2,0.5-0.5,0.7-0.8c0.2-0.3,0.4-0.6,0.6-1c0.2-0.3,0.3-0.7,0.4-1.1
			S69.9,20.5,69.9,20.1z M70.6,12.8c0-0.1,0-0.2,0-0.3c0-0.1-0.1-0.2-0.1-0.2c-0.1-0.1-0.1-0.1-0.2-0.2c-0.1,0-0.2-0.1-0.3-0.1
			c-0.2,0-0.5,0.1-0.7,0.3c-0.3,0.2-0.5,0.4-0.8,0.7c-0.3,0.3-0.5,0.6-0.7,1.1s-0.5,0.8-0.7,1.3s-0.4,1-0.5,1.5
			c-0.2,0.5-0.3,1-0.4,1.6c0.1,0,0.2-0.1,0.3-0.2c0.1-0.1,0.3-0.2,0.4-0.3c0.2-0.1,0.3-0.2,0.5-0.4c0.2-0.1,0.3-0.3,0.5-0.4
			c0.2-0.1,0.3-0.3,0.4-0.4s0.2-0.2,0.3-0.3c0.8-0.8,1.3-1.5,1.6-2.1S70.6,13.2,70.6,12.8z"/>
		<path d="M87.9,18.8c0,0,0,0.1-0.1,0.3s-0.1,0.3-0.2,0.5c-0.8,1-1.5,2-2.3,2.9c-0.8,0.9-1.5,1.7-2.3,2.4c-0.7,0.7-1.5,1.2-2.1,1.6
			c-0.7,0.4-1.4,0.6-2,0.6c-0.6,0-1.1-0.1-1.5-0.3s-0.8-0.5-1-0.8s-0.5-0.8-0.6-1.3s-0.2-1-0.2-1.6c0-0.5,0-1,0.1-1.5s0.2-1,0.4-1.6
			c0.2-0.5,0.4-1,0.7-1.5c0.3-0.5,0.6-1,1-1.4c0.2-0.2,0.3-0.3,0.5-0.5s0.4-0.3,0.6-0.4c0.2-0.1,0.4-0.2,0.7-0.3s0.5-0.1,0.7-0.1
			c0.2,0,0.5,0,0.7,0.1c0.2,0.1,0.4,0.2,0.5,0.4s0.3,0.3,0.4,0.6s0.1,0.4,0.1,0.7c0,0.6-0.1,1.1-0.5,1.7s-0.9,1.2-1.6,2
			c-0.1,0.1-0.3,0.3-0.5,0.5s-0.4,0.4-0.7,0.6c-0.2,0.2-0.5,0.4-0.7,0.6s-0.5,0.4-0.7,0.5c0,0.3,0,0.6,0.1,0.8s0.2,0.5,0.4,0.7
			c0.2,0.2,0.4,0.4,0.6,0.5c0.2,0.1,0.6,0.2,0.9,0.2c0.4,0,0.8-0.1,1.2-0.3c0.4-0.2,0.8-0.4,1.2-0.7s0.9-0.7,1.3-1.1
			c0.4-0.4,0.9-0.9,1.3-1.3c0.5-0.5,0.9-1,1.4-1.5s0.9-1,1.3-1.6c0,0,0.1-0.1,0.1-0.1s0.1-0.1,0.2-0.1c0.1-0.1,0.1-0.1,0.2-0.1
			c0.1,0,0.1-0.1,0.2-0.1c0,0,0,0,0.1,0c0,0,0.1,0,0.1,0.1s0.1,0.1,0.1,0.1S87.9,18.8,87.9,18.8z M80.4,17.8c0-0.2-0.1-0.4-0.1-0.5
			s-0.2-0.2-0.4-0.2c-0.4,0-0.7,0.2-1.1,0.6s-0.7,1-1,1.7c-0.1,0.2-0.1,0.3-0.2,0.5c-0.1,0.2-0.1,0.4-0.2,0.6
			c-0.1,0.2-0.1,0.4-0.1,0.6c0,0.2-0.1,0.4-0.1,0.5c0.4-0.3,0.7-0.5,1-0.8s0.5-0.6,0.8-0.8c0.2-0.2,0.4-0.4,0.6-0.6
			c0.2-0.2,0.3-0.4,0.5-0.6c0.1-0.2,0.2-0.4,0.3-0.6C80.4,18.2,80.4,18,80.4,17.8z"/>
		<path d="M92,15.2c-0.1-1.1-0.5-2-0.9-2.6s-1.1-0.9-1.7-0.9c-0.2,0-0.4,0-0.6,0.1c-0.2,0.1-0.4,0.1-0.7,0.2s-0.4,0.2-0.7,0.3
			s-0.4,0.3-0.6,0.4c-0.2,0.1-0.3,0.2-0.4,0.2s-0.2,0-0.3,0s-0.2,0-0.3-0.1s-0.1-0.2-0.1-0.4c0-0.1,0-0.2,0.1-0.3
			c0-0.1,0.1-0.2,0.2-0.3c0.1-0.1,0.2-0.2,0.2-0.3c0.1-0.1,0.2-0.2,0.3-0.3c0.5-0.4,1.1-0.7,1.6-0.9s1.1-0.3,1.6-0.3
			c0.7,0,1.3,0.2,1.8,0.5c0.5,0.3,1,0.8,1.4,1.4c0.4,0.6,0.7,1.3,0.9,2.1c0.2,0.8,0.3,1.8,0.3,2.8c0,0.3,0,0.7,0,1.1
			c0,0.4-0.1,0.7-0.1,1.1c0,0.4-0.1,0.7-0.2,1c-0.1,0.3-0.1,0.6-0.2,0.8c-0.2,0.7-0.5,1.3-0.8,1.9s-0.7,1.1-1.2,1.6
			c-0.5,0.5-1,0.8-1.5,1.1s-1.1,0.4-1.8,0.4c-0.5,0-0.9-0.1-1.2-0.3s-0.7-0.4-0.9-0.8c-0.2-0.3-0.4-0.7-0.6-1.2s-0.2-1-0.2-1.6
			c0-0.5,0.1-0.9,0.2-1.4s0.3-0.9,0.6-1.4s0.6-0.9,1-1.3c0.4-0.4,0.8-0.8,1.3-1.2s1-0.7,1.6-0.9C90.7,15.6,91.3,15.3,92,15.2z
			 M88.5,24.4c0.3,0,0.6-0.1,0.9-0.3c0.3-0.2,0.6-0.4,0.9-0.8c0.3-0.3,0.6-0.8,0.9-1.3s0.5-1.1,0.7-1.7c0-0.2,0.1-0.4,0.2-0.7
			s0.1-0.7,0.1-1s0.1-0.7,0.1-1.1s0-0.7-0.1-1c-0.6,0.2-1.1,0.4-1.7,0.7c-0.6,0.3-1.1,0.7-1.6,1.2s-0.9,1-1.2,1.7
			c-0.3,0.6-0.5,1.3-0.5,2.1c0,0.8,0.1,1.3,0.4,1.7C87.7,24.2,88,24.4,88.5,24.4z"/>
		<path d="M110,22.1c0,0.1-0.1,0.3-0.2,0.5s-0.2,0.4-0.4,0.6c-0.3,0.4-0.6,0.8-1,1.1s-0.7,0.6-1,0.8c-0.3,0.2-0.7,0.4-1,0.5
			s-0.6,0.2-0.9,0.2c-0.4,0-0.8-0.1-1.1-0.2s-0.5-0.4-0.7-0.7c-0.2-0.3-0.3-0.8-0.4-1.4c-0.1-0.6-0.1-1.3-0.1-2.2
			c-0.2,0.3-0.4,0.6-0.7,1s-0.5,0.7-0.8,1.1s-0.6,0.7-1,1c-0.3,0.3-0.7,0.6-1,0.9c-0.3,0.3-0.7,0.4-1,0.6s-0.6,0.2-0.9,0.2
			c-0.1,0-0.2,0-0.3-0.1c-0.2-0.1-0.3-0.2-0.5-0.4c-0.2-0.1-0.3-0.3-0.5-0.5s-0.2-0.4-0.3-0.6c-0.1-0.4-0.2-0.8-0.2-1.2
			c0-0.4,0-0.8,0.1-1.2c0.1-0.5,0.2-0.9,0.4-1.4s0.3-1,0.5-1.5c0.2-0.5,0.3-0.9,0.5-1.4c0.1-0.4,0.2-0.8,0.2-1.1
			c0,0,0.1-0.1,0.2-0.2c0.1-0.1,0.2-0.1,0.3-0.2c0.1-0.1,0.2-0.1,0.3-0.1c0.1,0,0.2-0.1,0.2-0.1c0.1,0,0.2,0,0.3,0.1
			s0.2,0.1,0.3,0.2s0.1,0.2,0.2,0.3c0.1,0.1,0.1,0.2,0.1,0.2c0,0.1,0,0.1-0.1,0.3s-0.1,0.3-0.1,0.4s-0.1,0.3-0.2,0.5
			c-0.1,0.2-0.2,0.3-0.2,0.5c-0.2,0.4-0.3,0.7-0.5,1c-0.2,0.3-0.3,0.6-0.4,1c-0.1,0.3-0.2,0.7-0.3,1c-0.1,0.4-0.1,0.7-0.1,1.2
			c0,0.2,0,0.3,0.1,0.5s0.1,0.3,0.1,0.5s0.1,0.3,0.2,0.3s0.2,0.1,0.3,0.1c0.1,0,0.2,0,0.4-0.1c0.1-0.1,0.3-0.1,0.4-0.2
			c0.1-0.1,0.3-0.2,0.4-0.2s0.2-0.2,0.3-0.2c0.3-0.2,0.5-0.4,0.8-0.7s0.5-0.5,0.7-0.8s0.4-0.5,0.6-0.8s0.3-0.4,0.4-0.6
			c0.2-0.2,0.3-0.5,0.4-0.8c0.1-0.3,0.3-0.6,0.4-0.9c0.1-0.3,0.2-0.6,0.4-0.8s0.2-0.5,0.4-0.7c0.1-0.2,0.3-0.4,0.4-0.5
			s0.3-0.2,0.5-0.2c0.2,0,0.3,0,0.4,0.1s0.2,0.1,0.2,0.2s0.1,0.2,0.1,0.3s0,0.2,0,0.3c0,0,0,0.1-0.1,0.3c0,0.1-0.1,0.3-0.1,0.6
			c-0.1,0.2-0.1,0.5-0.2,0.8s-0.1,0.6-0.2,0.9c-0.1,0.3-0.1,0.6-0.1,0.9s-0.1,0.6-0.1,0.8c0,0.6,0,1,0.1,1.4
			c0.1,0.4,0.1,0.6,0.2,0.9s0.2,0.4,0.4,0.4s0.3,0.1,0.5,0.1c0.2,0,0.3,0,0.6-0.1s0.5-0.2,0.7-0.3c0.2-0.1,0.5-0.3,0.8-0.5
			s0.5-0.4,0.8-0.6c0.1-0.1,0.2-0.2,0.3-0.3c0.1-0.1,0.2-0.2,0.3-0.3s0.2-0.2,0.3-0.3c0.1-0.1,0.2-0.1,0.2-0.1
			C109.9,21.8,110,21.9,110,22.1z"/>
		<path d="M126.2,20.9c-0.2,0.1-0.5,0.3-0.8,0.4s-0.7,0.2-1.2,0.4s-0.9,0.2-1.3,0.3S122,22,121.6,22c0,0.1-0.1,0.2-0.1,0.4
			c0,0.2,0,0.4-0.1,0.6c0,0.2,0,0.5,0,0.8c0,0.3,0,0.5,0,0.8c0,0.3,0,0.5,0,0.7c0,0.2,0,0.3,0,0.4c0,0.1,0,0.2-0.1,0.3
			c-0.1,0.1-0.1,0.2-0.2,0.3s-0.2,0.2-0.3,0.2s-0.2,0.1-0.3,0.1c-0.1,0-0.3,0-0.4-0.1c-0.1-0.1-0.2-0.1-0.3-0.2
			c-0.1-0.1-0.1-0.1-0.2-0.2s-0.1-0.1-0.1-0.2c0-0.1,0-0.3,0-0.6c0-0.2,0.1-0.5,0.1-0.8s0.1-0.6,0.1-0.9c0.1-0.3,0.1-0.6,0.1-0.9
			c0-0.3,0.1-0.7,0.1-1.1c0-0.4,0.1-0.8,0.1-1.2s0-0.8,0-1.2c0-0.4,0-0.8,0-1.2c0-0.4,0-0.7,0-1c0-0.3,0-0.5,0-0.7
			c0-0.3,0.1-0.6,0.2-0.8s0.4-0.3,0.7-0.3c0.1,0,0.2,0,0.3,0.1c0.1,0.1,0.2,0.1,0.3,0.2c0.1,0.1,0.2,0.2,0.2,0.3
			c0.1,0.1,0.1,0.2,0.1,0.3c0,0.3,0,0.7-0.1,1.1c0,0.4-0.1,0.7-0.1,1.1c0,0.4-0.1,0.7-0.1,1c0,0.3-0.1,0.5-0.1,0.7
			c0,0.2,0.1,0.3,0.3,0.4s0.5,0.1,0.8,0.1c0.3,0,0.5,0,0.8-0.1s0.6-0.1,0.9-0.2s0.6-0.2,0.8-0.3s0.4-0.2,0.6-0.4
			c0.1-0.1,0.2-0.3,0.3-0.4c0.1-0.2,0.2-0.4,0.2-0.5c0.1-0.2,0.1-0.5,0.1-0.8s0.1-0.6,0.1-0.9c0.1-0.5,0.2-0.8,0.5-1.1
			s0.5-0.4,0.8-0.4c0.3,0,0.5,0.1,0.6,0.3s0.2,0.4,0.2,0.6c0,0.1,0,0.2-0.1,0.4c-0.1,0.2-0.1,0.5-0.2,0.7s-0.2,0.6-0.3,0.8
			c-0.1,0.3-0.2,0.5-0.2,0.7c0,0.1-0.1,0.4-0.2,0.6c-0.1,0.3-0.1,0.6-0.1,0.9c0,0.3-0.1,0.6-0.1,1c0,0.3,0,0.6,0,0.8
			c0,0.7,0.1,1.2,0.3,1.5s0.4,0.4,0.8,0.4c0.2,0,0.5,0,0.8-0.1c0.3-0.1,0.6-0.3,1-0.5c0.4-0.2,0.8-0.5,1.2-0.9s0.9-0.8,1.5-1.4
			c0.3-0.3,0.5-0.5,0.8-0.8s0.5-0.5,0.7-0.8c0.2-0.2,0.4-0.5,0.6-0.7c0.2-0.2,0.3-0.4,0.4-0.5c0.1-0.1,0.2-0.2,0.3-0.3
			c0.1-0.1,0.2-0.1,0.3-0.1c0.1,0,0.2,0,0.3,0.1c0.1,0,0.1,0.1,0.1,0.3c0,0.1-0.1,0.3-0.2,0.6s-0.3,0.5-0.6,0.8
			c-0.1,0.1-0.2,0.2-0.3,0.4s-0.3,0.4-0.5,0.6c-0.2,0.2-0.4,0.5-0.7,0.8c-0.2,0.3-0.5,0.5-0.7,0.8s-0.5,0.5-0.7,0.7
			c-0.2,0.2-0.4,0.4-0.6,0.6c-0.7,0.6-1.4,1.1-2,1.5s-1.4,0.6-2.1,0.6c-0.6,0-1.1-0.2-1.4-0.7S126,24,126,23.1c0-0.2,0-0.4,0-0.6
			c0-0.2,0-0.4,0-0.6s0-0.4,0-0.6C126.2,21.2,126.2,21,126.2,20.9z"/>
		<path d="M146.7,22.1c0,0.2-0.1,0.3-0.2,0.6s-0.3,0.5-0.5,0.8c-0.2,0.3-0.4,0.5-0.6,0.7s-0.5,0.5-0.7,0.6s-0.5,0.3-0.8,0.4
			s-0.6,0.2-0.9,0.2c-0.4,0-0.8-0.1-1.1-0.3s-0.6-0.4-0.8-0.7c-0.2-0.3-0.4-0.7-0.5-1.1c-0.1-0.4-0.2-0.9-0.3-1.3
			c-0.3,0.4-0.7,0.9-1.1,1.3s-0.8,0.8-1.3,1.2c-0.4,0.3-0.9,0.6-1.3,0.8c-0.4,0.2-0.8,0.3-1.1,0.3c-0.2,0-0.4-0.1-0.6-0.2
			s-0.4-0.3-0.5-0.4c-0.2-0.2-0.3-0.4-0.4-0.6s-0.1-0.5-0.1-0.8s0-0.5,0.1-0.8s0.1-0.6,0.2-0.9c0.1-0.3,0.2-0.7,0.4-1.1
			s0.4-0.8,0.6-1.3c0.3-0.5,0.6-1,1-1.5s0.8-0.9,1.1-1.3c0.4-0.4,0.8-0.6,1.1-0.9c0.4-0.2,0.6-0.3,0.9-0.3c0.1,0,0.1,0,0.2,0
			s0.2,0.1,0.2,0.1c0.1,0,0.2,0.1,0.2,0.1c0.1,0,0.1,0,0.2,0s0.1,0,0.2,0c0.1,0,0.1-0.1,0.2-0.1c0.1,0,0.1-0.1,0.2-0.1s0.1,0,0.2,0
			c0.1,0,0.2,0,0.3,0.1s0.2,0.1,0.3,0.2c0.1,0.1,0.2,0.2,0.2,0.3s0.1,0.2,0.1,0.3c0,0.1,0.1,0.2,0.1,0.3c0,0.1,0.1,0.1,0.1,0.2
			c0,0,0.1,0.1,0.1,0.2c0,0.1,0,0.2,0,0.3c0,0.1,0,0.2-0.1,0.4s-0.1,0.5-0.2,0.8c-0.1,0.3-0.1,0.6-0.2,0.9s-0.1,0.6-0.1,0.9
			c0,0.7,0,1.3,0.1,1.8c0.1,0.5,0.2,0.8,0.3,1.1s0.3,0.5,0.5,0.6s0.4,0.2,0.6,0.2c0.2,0,0.4,0,0.6-0.1c0.2-0.1,0.4-0.2,0.6-0.3
			c0.2-0.1,0.4-0.3,0.6-0.4c0.2-0.2,0.4-0.3,0.5-0.5c0.2-0.2,0.4-0.4,0.6-0.6c0.2-0.2,0.3-0.2,0.4-0.2c0.1,0,0.2,0,0.2,0.1
			S146.7,22,146.7,22.1z M140.3,18.3c0-0.5-0.1-0.9-0.2-1.1c-0.2-0.2-0.3-0.3-0.5-0.3c-0.2,0-0.3,0-0.5,0.1
			c-0.2,0.1-0.3,0.1-0.5,0.3s-0.3,0.2-0.4,0.3s-0.2,0.2-0.3,0.4c-0.2,0.2-0.3,0.5-0.5,0.7s-0.4,0.6-0.5,0.9
			c-0.2,0.3-0.4,0.6-0.5,0.9s-0.3,0.6-0.4,0.9s-0.2,0.6-0.3,0.9c-0.1,0.3-0.1,0.5-0.1,0.7c0,0.3,0.1,0.6,0.2,0.8
			c0.1,0.2,0.4,0.3,0.7,0.3c0.1,0,0.3-0.1,0.5-0.2s0.5-0.3,0.7-0.6c0.3-0.2,0.5-0.5,0.8-0.7s0.4-0.5,0.6-0.8
			c0.2-0.3,0.3-0.5,0.5-0.8c0.2-0.3,0.3-0.6,0.5-0.9s0.3-0.6,0.3-0.9C140.3,18.8,140.3,18.5,140.3,18.3z"/>
		<path d="M171.5,19.3c0,0.1,0,0.2-0.1,0.3c-0.1,0.1-0.2,0.3-0.3,0.5s-0.3,0.4-0.4,0.6s-0.3,0.4-0.5,0.7c-0.7,0.9-1.4,1.7-2.1,2.4
			s-1.3,1.2-1.8,1.5s-1.1,0.7-1.6,0.8s-0.9,0.3-1.3,0.3c-0.3,0-0.7-0.1-1-0.2s-0.6-0.3-0.9-0.5c-0.3-0.2-0.5-0.5-0.7-0.8
			s-0.3-0.8-0.5-1.2c-0.1-0.3-0.1-0.5-0.2-0.7s-0.2-0.3-0.3-0.5c-0.1-0.1-0.2-0.2-0.3-0.2c-0.1,0-0.2-0.1-0.3-0.1
			c-0.2,0-0.4,0.1-0.6,0.2c-0.2,0.1-0.3,0.3-0.5,0.5c-0.1,0.1-0.1,0.2-0.2,0.4c-0.1,0.2-0.1,0.4-0.2,0.7c-0.1,0.3-0.1,0.5-0.2,0.8
			c-0.1,0.3-0.1,0.6-0.2,0.9c-0.1,0.2-0.1,0.4-0.2,0.6s-0.2,0.2-0.3,0.3c-0.1,0.1-0.2,0.1-0.3,0.1s-0.2,0-0.3,0
			c-0.1,0-0.2,0-0.3-0.1c-0.1-0.1-0.1-0.1-0.2-0.2c0-0.1-0.1-0.2-0.1-0.3c0-0.1,0-0.2,0-0.3c0-0.1,0-0.3,0.1-0.5
			c0.1-0.2,0.1-0.4,0.2-0.7c0.1-0.3,0.2-0.6,0.3-1c0.1-0.4,0.2-0.9,0.3-1.5c0.1-0.4,0.1-0.8,0.2-1.2c0.1-0.4,0.1-0.9,0.1-1.4
			c0-0.5,0.1-0.9,0.1-1.4c0-0.5,0-0.9,0-1.3c0-0.1,0-0.3,0.1-0.4c0.1-0.1,0.1-0.2,0.2-0.3c0.1-0.1,0.2-0.2,0.3-0.2
			c0.1-0.1,0.2-0.1,0.3-0.1c0.1,0,0.2,0,0.3,0.1c0.1,0.1,0.2,0.1,0.3,0.3s0.1,0.3,0.2,0.5c0.1,0.2,0.1,0.4,0.1,0.7c0,0.4,0,0.7,0,1
			s0,0.6-0.1,0.9s-0.1,0.6-0.1,0.9c0,0.3-0.1,0.6-0.1,0.9c0.5,0,0.9-0.1,1.2-0.3c0.4-0.2,0.7-0.4,1.1-0.6c0.3-0.2,0.5-0.4,0.8-0.7
			c0.3-0.3,0.5-0.5,0.7-0.8c0.2-0.3,0.4-0.6,0.6-0.8c0.2-0.3,0.3-0.5,0.4-0.7c0.1-0.1,0.1-0.3,0.2-0.4c0.1-0.1,0.2-0.3,0.3-0.4
			c0.1-0.1,0.2-0.2,0.3-0.3c0.1-0.1,0.2-0.1,0.4-0.1c0.1,0,0.2,0,0.4,0.1c0.1,0,0.3,0.1,0.4,0.2c0.1,0.1,0.2,0.2,0.3,0.3
			c0.1,0.1,0.1,0.2,0.1,0.4c0,0.1,0,0.3-0.1,0.4c-0.1,0.2-0.2,0.3-0.4,0.4c-0.2,0.1-0.4,0.3-0.6,0.6c-0.2,0.3-0.5,0.7-0.8,1.2
			c-0.3,0.4-0.6,0.8-1,1.1c-0.4,0.3-0.8,0.7-1.4,1c0.1,0.1,0.2,0.3,0.3,0.5c0.1,0.2,0.2,0.4,0.3,0.7c0.1,0.3,0.2,0.5,0.3,0.8
			c0.1,0.3,0.2,0.5,0.4,0.7c0.1,0.2,0.3,0.4,0.5,0.5s0.5,0.2,0.8,0.2c0.3,0,0.6-0.1,0.9-0.2c0.3-0.1,0.7-0.3,1-0.5
			c0.3-0.2,0.7-0.5,1-0.7s0.7-0.6,1-1c0.3-0.3,0.5-0.5,0.8-0.9c0.3-0.3,0.5-0.6,0.8-0.9c0.3-0.3,0.5-0.6,0.7-0.8s0.4-0.4,0.5-0.6
			c0.2-0.2,0.3-0.4,0.4-0.5s0.2-0.1,0.3-0.1c0.1,0,0.2,0,0.2,0.1C171.5,19.1,171.5,19.2,171.5,19.3z"/>
		<path d="M185.2,19.4c0,0.1-0.1,0.2-0.2,0.4c-0.1,0.2-0.3,0.5-0.6,0.8s-0.6,0.7-0.9,1c-0.4,0.4-0.8,0.8-1.2,1.1
			c-0.5,0.4-1,0.8-1.4,1.1c-0.4,0.3-0.8,0.5-1.1,0.7c-0.3,0.2-0.6,0.3-0.9,0.3c-0.3,0.1-0.5,0.1-0.7,0.1c-0.3,0-0.6,0-0.8-0.1
			c-0.2-0.1-0.5-0.3-0.6-0.5c-0.2-0.2-0.3-0.5-0.5-0.8s-0.2-0.8-0.3-1.3h-0.1c-0.3,0.4-0.6,0.9-0.9,1.3c-0.3,0.4-0.7,0.8-1.1,1.1
			c-0.4,0.3-0.7,0.6-1.1,0.8c-0.4,0.2-0.8,0.3-1.1,0.3c-0.2,0-0.4,0-0.6-0.1c-0.2-0.1-0.4-0.2-0.6-0.3c-0.2-0.2-0.3-0.4-0.5-0.6
			c-0.1-0.2-0.2-0.5-0.2-0.9c0-0.3,0-0.6,0.1-1c0.1-0.4,0.2-0.8,0.3-1.2c0.1-0.4,0.3-0.8,0.4-1.3c0.2-0.4,0.3-0.8,0.5-1.2
			c0.2-0.4,0.4-0.7,0.6-1s0.4-0.6,0.6-0.7c0.2-0.2,0.4-0.4,0.7-0.7c0.3-0.2,0.6-0.4,0.9-0.6s0.7-0.3,1.1-0.5
			c0.4-0.1,0.8-0.2,1.2-0.2c0.3,0,0.6,0.1,0.8,0.3s0.3,0.6,0.4,1c0,0,0,0.1,0.1,0.1c0,0.1,0.1,0.1,0.1,0.2c0.1,0.1,0.1,0.1,0.1,0.2
			c0,0.1,0.1,0.1,0.1,0.2c0,0.1,0,0.2-0.1,0.4c0,0.2-0.1,0.3-0.2,0.5c-0.1,0.2-0.1,0.4-0.2,0.7c0,0.2-0.1,0.5-0.1,0.7
			c0,0.4,0,0.7,0,1.1s0,0.8,0.1,1.1c0.1,0.3,0.2,0.6,0.4,0.8c0.2,0.2,0.4,0.3,0.7,0.3c0.3,0,0.8-0.2,1.3-0.5s1.2-0.7,1.9-1.3
			c0.4-0.4,0.9-0.7,1.2-1.1c0.4-0.4,0.7-0.7,1-1c0.3-0.3,0.6-0.5,0.8-0.7s0.4-0.3,0.5-0.3c0.1,0,0.2,0,0.2,0.1c0,0,0,0.1,0,0.2
			c0,0,0,0,0,0.1c0,0,0,0.1,0,0.1S185.3,19.3,185.2,19.4C185.3,19.4,185.2,19.4,185.2,19.4z M176.1,17.9c0-0.1,0-0.1-0.1-0.2
			c-0.1-0.1-0.1-0.2-0.2-0.2c-0.1-0.1-0.2-0.1-0.3-0.2s-0.2-0.1-0.3-0.1c-0.2,0-0.4,0-0.6,0.1c-0.2,0.1-0.4,0.2-0.5,0.3
			s-0.3,0.2-0.4,0.4c-0.1,0.1-0.3,0.3-0.4,0.4c-0.2,0.3-0.5,0.7-0.8,1.2c-0.3,0.5-0.5,0.9-0.7,1.4c-0.2,0.5-0.4,1-0.5,1.5
			c-0.1,0.5-0.2,0.9-0.2,1.3c0,0.2,0.1,0.4,0.3,0.5s0.4,0.2,0.7,0.2c0.2,0,0.4-0.1,0.6-0.2c0.2-0.1,0.5-0.3,0.7-0.6
			c0.2-0.2,0.5-0.5,0.7-0.8c0.2-0.3,0.5-0.6,0.6-1c0.3-0.6,0.6-1.2,0.9-1.9C175.9,19.2,176.1,18.6,176.1,17.9z"/>
		<path d="M199.6,18.3c0,0.1,0,0.2-0.1,0.4c-0.1,0.1-0.2,0.3-0.3,0.4c-0.1,0.1-0.2,0.3-0.4,0.4c-0.1,0.1-0.2,0.2-0.3,0.3
			c-0.4,0.3-0.8,0.7-1.3,1c-0.5,0.4-1,0.7-1.6,1.1c-0.6,0.4-1.3,0.8-2,1.1c-0.7,0.4-1.5,0.8-2.3,1.1c-0.1,0-0.2,0.1-0.3,0.2
			c-0.2,0.1-0.3,0.2-0.6,0.4s-0.4,0.3-0.7,0.4c-0.2,0.2-0.5,0.3-0.7,0.4c-0.2,0.1-0.4,0.2-0.6,0.3c-0.2,0.1-0.3,0.1-0.4,0.1
			c-0.1,0-0.3,0-0.4-0.1c-0.1,0-0.3-0.1-0.4-0.1c-0.1-0.1-0.2-0.1-0.3-0.2s-0.1-0.2-0.1-0.2c0-0.2,0.1-0.4,0.2-0.5s0.3-0.3,0.5-0.4
			c0.3-0.1,0.5-0.3,0.7-0.4c0.2-0.1,0.3-0.2,0.5-0.3c0.1-0.1,0.3-0.2,0.4-0.3c0.1-0.1,0.3-0.2,0.4-0.4c0.2-0.2,0.3-0.4,0.5-0.6
			s0.4-0.5,0.5-0.8c0.2-0.3,0.3-0.6,0.5-0.9c0.2-0.3,0.3-0.6,0.4-0.9c0.1-0.3,0.2-0.6,0.3-0.9s0.1-0.5,0.1-0.8c0-0.1,0-0.3,0-0.4
			c0-0.1-0.1-0.3-0.1-0.4c-0.1-0.1-0.1-0.2-0.2-0.3c-0.1-0.1-0.2-0.1-0.3-0.1c-0.2,0-0.4,0-0.6,0.1s-0.4,0.2-0.6,0.4
			c-0.2,0.1-0.4,0.3-0.6,0.5c-0.2,0.2-0.3,0.3-0.5,0.5c-0.4,0.4-0.7,0.8-1,1.2c-0.3,0.4-0.6,0.8-0.8,1.2c-0.3,0.4-0.5,0.8-0.7,1.2
			c-0.2,0.4-0.4,0.8-0.6,1.2c0,0.3-0.1,0.7-0.1,1.1c0,0.4-0.1,0.8-0.1,1.3s-0.1,0.9-0.1,1.3c0,0.4,0,0.8-0.1,1.2c0,0.4,0,0.7-0.1,1
			s-0.1,0.6-0.1,0.9c0,0.1-0.1,0.3-0.2,0.4c-0.1,0.1-0.1,0.3-0.2,0.4c-0.1,0.1-0.2,0.2-0.3,0.3c-0.1,0.1-0.2,0.1-0.4,0.1
			c-0.1,0-0.2,0-0.3-0.1s-0.2-0.1-0.3-0.2c-0.1-0.1-0.2-0.2-0.2-0.2c-0.1-0.1-0.1-0.2-0.1-0.3c0-0.2,0-0.5,0.1-0.8s0.1-0.7,0.1-1
			c0-0.3,0.1-0.6,0.1-0.9c0-0.3,0.1-0.5,0.1-0.6c0.1-0.7,0.2-1.5,0.2-2.3c0.1-0.8,0.1-1.7,0.2-2.7c0-0.3,0-0.7,0-1.2
			c0-0.6,0-1,0-1.5c0-0.4,0-0.7,0-1c0-0.7,0.2-1.1,0.3-1.5s0.4-0.5,0.7-0.5c0.2,0,0.4,0.1,0.6,0.3c0.2,0.2,0.3,0.4,0.3,0.7
			c0,0.2,0,0.5-0.1,0.8c-0.1,0.3-0.1,0.6-0.2,0.9c-0.1,0.3-0.1,0.6-0.2,0.9c-0.1,0.3-0.1,0.6-0.1,0.8c0,0.2,0,0.3,0.1,0.3
			c0.5-0.9,1-1.6,1.5-2.4c0.5-0.7,1-1.3,1.5-1.7c0.2-0.2,0.4-0.4,0.7-0.6s0.5-0.4,0.7-0.5s0.5-0.3,0.7-0.4c0.2-0.1,0.5-0.1,0.7-0.1
			c0.3,0,0.5,0,0.7,0.2c0.2,0.1,0.5,0.3,0.6,0.4c0.2,0.2,0.3,0.4,0.4,0.6s0.2,0.5,0.2,0.7s0,0.5-0.1,0.8c0,0.3-0.1,0.6-0.2,0.9
			s-0.2,0.7-0.3,1s-0.3,0.7-0.4,1c-0.1,0.3-0.3,0.6-0.5,0.9c-0.2,0.3-0.3,0.5-0.5,0.7c1.3-0.6,2.5-1.2,3.6-1.8
			c1.1-0.7,2-1.4,2.9-2.2c0.3-0.3,0.6-0.5,0.8-0.7s0.4-0.3,0.5-0.3c0,0,0.1,0,0.1,0.1c0,0,0,0.1,0.1,0.2c0,0.1,0,0.1,0,0.2
			C199.6,18.1,199.6,18.2,199.6,18.3z"/>
		<path d="M212.5,17.5c0,0.2-0.1,0.4-0.1,0.7c0,0.2-0.1,0.5-0.2,0.7c-0.1,0.3-0.1,0.5-0.2,0.8c-0.1,0.3-0.1,0.6-0.1,0.9
			c0,0.4,0,0.7,0,1c0,0.3,0.1,0.6,0.2,0.9c0.1,0.3,0.2,0.5,0.4,0.6c0.2,0.2,0.4,0.2,0.7,0.2c0.4,0,0.8-0.1,1.3-0.4
			c0.5-0.2,0.9-0.6,1.4-1s1-0.9,1.6-1.5c0.6-0.6,1.1-1.2,1.7-1.8c0,0,0.1-0.1,0.1-0.1c0,0,0.1,0,0.1,0c0,0,0.1,0,0.1,0.1
			c0.1,0.1,0.1,0.2,0.1,0.3c0,0.2-0.1,0.4-0.1,0.7c-0.1,0.3-0.2,0.6-0.5,0.9c-0.2,0.3-0.5,0.7-0.8,1s-0.6,0.7-1,1
			c-0.3,0.3-0.7,0.6-1.1,0.9c-0.4,0.3-0.8,0.5-1.1,0.8c-0.4,0.2-0.8,0.4-1.2,0.5c-0.4,0.1-0.8,0.2-1.1,0.1c-0.5,0-0.9-0.2-1.2-0.5
			c-0.3-0.3-0.5-0.6-0.7-1c-0.2-0.4-0.3-0.8-0.3-1.3c0-0.5-0.1-0.9,0-1.4c0-0.1,0-0.3,0.1-0.5s0-0.4,0.1-0.6s0-0.4,0-0.5
			c0-0.1,0-0.2-0.1-0.2c0,0-0.2,0.1-0.4,0.3c-0.2,0.2-0.4,0.4-0.7,0.7c-0.3,0.3-0.5,0.6-0.9,1c-0.3,0.4-0.6,0.8-0.9,1.1
			c-0.1,0.1-0.2,0.2-0.3,0.4c-0.1,0.2-0.2,0.3-0.3,0.5c-0.1,0.2-0.2,0.3-0.3,0.5s-0.2,0.3-0.2,0.4c-0.1,0.2-0.1,0.3-0.2,0.5
			c-0.1,0.1-0.1,0.3-0.2,0.4c-0.1,0.1-0.1,0.2-0.2,0.2c-0.1,0.1-0.1,0.1-0.2,0.1h0c0,0-0.1,0-0.2-0.1c-0.1,0-0.2-0.1-0.3-0.1
			s-0.2-0.1-0.3-0.2c-0.1-0.1-0.1-0.1-0.1-0.2c0-0.1,0-0.1,0-0.2s0-0.2,0-0.4s0-0.4,0-0.6c0-0.2,0-0.5,0-0.8c0-0.3,0-0.6,0-0.9
			c0-0.3,0-0.6,0-0.9c0-0.3,0-0.6-0.1-0.8c0-0.2-0.1-0.4-0.2-0.6c-0.6,0.1-1.3,0.8-2.1,2.1c-0.5,0.8-1,1.6-1.4,2.3
			c-0.4,0.7-0.7,1.2-0.9,1.7c-0.1,0.3-0.2,0.5-0.3,0.7s-0.2,0.3-0.3,0.4c-0.1,0.1-0.2,0.2-0.3,0.2s-0.2,0.1-0.3,0
			c-0.2,0-0.3-0.1-0.4-0.1c-0.1-0.1-0.2-0.2-0.2-0.3c-0.1-0.1-0.1-0.3-0.1-0.4c0-0.2-0.1-0.4-0.1-0.6c0-0.3-0.1-0.6-0.1-1.1
			s0-0.9,0-1.4c0-0.5,0-0.9,0.1-1.4s0-0.8,0.1-1.1c0-0.2,0-0.3,0-0.5s0-0.4,0-0.7c0-0.2,0-0.4,0-0.7c0-0.2,0.1-0.4,0.2-0.5
			c0.1-0.2,0.3-0.3,0.5-0.4c0.2-0.1,0.4-0.1,0.6-0.1c0.2,0,0.3,0.1,0.4,0.2s0.1,0.3,0.1,0.5c0,0.2,0,0.4,0,0.6c0,0.2,0,0.5-0.1,0.7
			c0,0.2-0.1,0.5-0.1,0.7c0,0.2-0.1,0.5-0.1,0.7c0,0.2-0.1,0.4-0.1,0.7c0,0.3-0.1,0.5-0.1,0.8c0,0.3,0,0.5,0,0.7c0,0.2,0,0.4,0,0.5
			h0c0,0,0.1,0,0.2-0.1c0.1-0.1,0.2-0.2,0.3-0.4c0.1-0.2,0.2-0.3,0.3-0.6c0.1-0.2,0.2-0.4,0.4-0.7s0.2-0.5,0.4-0.7
			c0.1-0.2,0.3-0.4,0.4-0.6c0.7-1.2,1.4-2,2-2.6c0.6-0.5,1.2-0.8,1.7-0.8c0.2,0,0.4,0.1,0.6,0.3s0.3,0.4,0.4,0.6
			c0.1,0.2,0.2,0.5,0.2,0.8c0,0.3,0,0.6,0,0.8c0,0.2,0,0.4,0,0.6c0,0.2,0,0.4,0,0.6c0,0.2,0,0.4,0,0.6c0,0.2,0,0.4,0,0.5
			c0.1-0.1,0.2-0.2,0.4-0.4c0.2-0.2,0.3-0.4,0.5-0.6c0.2-0.2,0.4-0.5,0.5-0.7c0.2-0.2,0.3-0.4,0.5-0.6c0.3-0.4,0.7-0.7,1-1
			c0.3-0.3,0.7-0.6,1-0.9s0.6-0.5,0.9-0.6s0.5-0.2,0.8-0.2c0.1,0,0.2,0,0.3,0.1c0.1,0.1,0.2,0.1,0.2,0.2s0.1,0.2,0.1,0.3
			C212.5,17.3,212.5,17.4,212.5,17.5z"/>
		<path d="M236.1,18.6c0,0.1,0,0.2-0.1,0.4c-0.1,0.2-0.2,0.3-0.3,0.5c-0.1,0.2-0.3,0.4-0.4,0.6s-0.3,0.4-0.5,0.6
			c-0.5,0.6-1.1,1.2-1.6,1.7c-0.5,0.5-1,1-1.5,1.3s-1,0.7-1.4,0.9c-0.5,0.2-0.9,0.3-1.3,0.3c-0.5,0-0.9-0.1-1.2-0.4
			c-0.3-0.3-0.5-0.6-0.7-1c-0.2-0.4-0.3-0.9-0.4-1.4c-0.1-0.5-0.1-1.1-0.2-1.6c-0.2,0.3-0.4,0.6-0.6,1c-0.2,0.3-0.4,0.7-0.7,1
			s-0.5,0.6-0.7,0.9c-0.2,0.3-0.5,0.5-0.7,0.7c-0.3,0.2-0.5,0.4-0.8,0.7c-0.3,0.2-0.5,0.4-0.8,0.5c-0.3,0.1-0.6,0.3-0.9,0.3
			c-0.3,0.1-0.7,0.1-1,0.1c-0.5,0-1-0.2-1.3-0.7c-0.3-0.4-0.5-1-0.5-1.5c0-0.4,0-0.7,0.1-1.1s0.1-0.7,0.2-1.1
			c0.1-0.4,0.1-0.7,0.2-1.1c0.1-0.4,0.1-0.7,0.1-1.1c0-0.2,0-0.4,0-0.5c0-0.2,0-0.3,0-0.4s0-0.3,0-0.4s0-0.3,0.1-0.4
			c0-0.2,0.1-0.4,0.3-0.6s0.4-0.3,0.7-0.3c0.6,0,0.9,0.4,0.9,1.3c0,0.2,0,0.3,0,0.5c0,0.2-0.1,0.4-0.1,0.6c0,0.2-0.1,0.4-0.1,0.6
			c0,0.2-0.1,0.4-0.1,0.6c-0.1,0.5-0.3,1-0.3,1.5c-0.1,0.5-0.1,0.9-0.1,1.3c0,0.1,0,0.2,0,0.3c0,0.1,0.1,0.2,0.1,0.4
			c0.1,0.1,0.1,0.2,0.2,0.3c0.1,0.1,0.2,0.1,0.3,0.1c0.4,0,0.7-0.1,1-0.2c0.3-0.2,0.6-0.4,0.9-0.6c0.3-0.2,0.5-0.5,0.8-0.8
			c0.2-0.3,0.5-0.6,0.7-0.9c0.2-0.3,0.5-0.6,0.7-1c0.2-0.4,0.5-0.8,0.7-1.3s0.4-0.9,0.6-1.3c0.2-0.4,0.3-0.8,0.4-1.2
			c0-0.2,0.1-0.3,0.2-0.4s0.2-0.2,0.3-0.2c0.1-0.1,0.2-0.1,0.3-0.1s0.2,0,0.2,0c0.2,0,0.3,0,0.4,0.1c0.1,0.1,0.1,0.2,0.1,0.4
			c0,0.1,0,0.3,0,0.6c0,0.2-0.1,0.5-0.1,0.7s-0.1,0.5-0.1,0.7c0,0.2,0,0.4,0,0.5c0,0.1,0,0.3,0,0.5c0,0.2,0,0.4,0,0.6s0,0.4,0,0.6
			c0,0.2,0,0.4,0.1,0.5c0,0.1,0.1,0.3,0.1,0.6c0,0.2,0.1,0.4,0.2,0.7c0.1,0.2,0.2,0.4,0.3,0.6c0.1,0.2,0.3,0.2,0.5,0.2
			c0.4,0,0.8-0.1,1.3-0.3s1-0.5,1.5-0.9c0.5-0.4,1-0.8,1.6-1.3c0.5-0.5,1.1-1.1,1.6-1.7c0.1-0.1,0.1-0.1,0.2-0.2
			c0.1-0.1,0.1-0.1,0.2-0.2c0.1-0.1,0.1-0.1,0.2-0.2c0.1,0,0.1-0.1,0.2-0.1c0.1,0,0.2,0,0.3,0.1C236,18.5,236.1,18.5,236.1,18.6z"/>
		<path d="M241.3,20.9c-0.2,0.1-0.5,0.3-0.8,0.4c-0.4,0.1-0.7,0.2-1.2,0.4s-0.9,0.2-1.3,0.3s-0.9,0.1-1.3,0.2c0,0.1-0.1,0.2-0.1,0.4
			c0,0.2,0,0.4-0.1,0.6c0,0.2,0,0.5,0,0.8c0,0.3,0,0.5,0,0.8c0,0.3,0,0.5,0,0.7c0,0.2,0,0.3,0,0.4c0,0.1,0,0.2-0.1,0.3
			c-0.1,0.1-0.1,0.2-0.2,0.3c-0.1,0.1-0.2,0.2-0.3,0.2s-0.2,0.1-0.3,0.1c-0.1,0-0.3,0-0.4-0.1c-0.1-0.1-0.2-0.1-0.3-0.2
			c-0.1-0.1-0.1-0.1-0.2-0.2s-0.1-0.1-0.1-0.2c0-0.1,0-0.3,0-0.6c0-0.2,0.1-0.5,0.1-0.8s0.1-0.6,0.1-0.9c0.1-0.3,0.1-0.6,0.1-0.9
			c0-0.3,0.1-0.7,0.1-1.1c0-0.4,0.1-0.8,0.1-1.2c0-0.4,0-0.8,0-1.2c0-0.4,0-0.8,0-1.2c0-0.4,0-0.7,0-1c0-0.3,0-0.5,0-0.7
			c0-0.3,0.1-0.6,0.2-0.8s0.4-0.3,0.7-0.3c0.1,0,0.2,0,0.3,0.1c0.1,0.1,0.2,0.1,0.3,0.2c0.1,0.1,0.2,0.2,0.2,0.3
			c0.1,0.1,0.1,0.2,0.1,0.3c0,0.3,0,0.7-0.1,1.1c0,0.4-0.1,0.7-0.1,1.1c0,0.4-0.1,0.7-0.1,1c0,0.3-0.1,0.5-0.1,0.7
			c0,0.2,0.1,0.3,0.3,0.4s0.5,0.1,0.8,0.1c0.3,0,0.5,0,0.8-0.1s0.6-0.1,0.9-0.2s0.6-0.2,0.8-0.3c0.2-0.1,0.4-0.2,0.6-0.4
			c0.1-0.1,0.2-0.3,0.3-0.4c0.1-0.2,0.2-0.4,0.2-0.5c0.1-0.2,0.1-0.5,0.1-0.8c0-0.3,0.1-0.6,0.1-0.9c0.1-0.5,0.2-0.8,0.5-1.1
			c0.2-0.3,0.5-0.4,0.8-0.4c0.3,0,0.5,0.1,0.6,0.3c0.1,0.2,0.2,0.4,0.2,0.6c0,0.1,0,0.2-0.1,0.4c-0.1,0.2-0.1,0.5-0.2,0.7
			c-0.1,0.3-0.2,0.6-0.3,0.8c-0.1,0.3-0.2,0.5-0.2,0.7c0,0.1-0.1,0.4-0.2,0.6c-0.1,0.3-0.1,0.6-0.1,0.9c0,0.3-0.1,0.6-0.1,1
			c0,0.3,0,0.6,0,0.8c0,0.7,0.1,1.2,0.3,1.5c0.2,0.3,0.4,0.4,0.8,0.4c0.2,0,0.5,0,0.8-0.1c0.3-0.1,0.6-0.3,1-0.5
			c0.4-0.2,0.8-0.5,1.2-0.9s0.9-0.8,1.5-1.4c0.3-0.3,0.5-0.5,0.8-0.8s0.5-0.5,0.7-0.8c0.2-0.2,0.4-0.5,0.6-0.7
			c0.2-0.2,0.3-0.4,0.4-0.5c0.1-0.1,0.2-0.2,0.3-0.3c0.1-0.1,0.2-0.1,0.3-0.1c0.1,0,0.2,0,0.3,0.1c0.1,0,0.1,0.1,0.1,0.3
			c0,0.1-0.1,0.3-0.2,0.6c-0.2,0.2-0.3,0.5-0.6,0.8c-0.1,0.1-0.2,0.2-0.3,0.4s-0.3,0.4-0.5,0.6c-0.2,0.2-0.4,0.5-0.7,0.8
			c-0.2,0.3-0.5,0.5-0.7,0.8c-0.2,0.3-0.5,0.5-0.7,0.7c-0.2,0.2-0.4,0.4-0.6,0.6c-0.7,0.6-1.4,1.1-2,1.5c-0.7,0.4-1.4,0.6-2.1,0.6
			c-0.6,0-1.1-0.2-1.4-0.7c-0.3-0.5-0.5-1.2-0.5-2.1c0-0.2,0-0.4,0-0.6c0-0.2,0-0.4,0-0.6s0-0.4,0-0.6
			C241.3,21.2,241.3,21,241.3,20.9z"/>
		<path d="M265.6,19.3c0,0.1,0,0.2-0.1,0.3c-0.1,0.1-0.2,0.3-0.3,0.5s-0.3,0.4-0.4,0.6s-0.3,0.4-0.5,0.7c-0.7,0.9-1.4,1.7-2.1,2.4
			s-1.3,1.2-1.8,1.5s-1.1,0.7-1.6,0.8s-0.9,0.3-1.3,0.3c-0.3,0-0.7-0.1-1-0.2s-0.6-0.3-0.9-0.5c-0.3-0.2-0.5-0.5-0.7-0.8
			s-0.3-0.8-0.5-1.2c-0.1-0.3-0.1-0.5-0.2-0.7s-0.2-0.3-0.3-0.5c-0.1-0.1-0.2-0.2-0.3-0.2c-0.1,0-0.2-0.1-0.3-0.1
			c-0.2,0-0.4,0.1-0.6,0.2c-0.2,0.1-0.3,0.3-0.5,0.5c-0.1,0.1-0.1,0.2-0.2,0.4c-0.1,0.2-0.1,0.4-0.2,0.7c-0.1,0.3-0.1,0.5-0.2,0.8
			c-0.1,0.3-0.1,0.6-0.2,0.9c-0.1,0.2-0.1,0.4-0.2,0.6s-0.2,0.2-0.3,0.3c-0.1,0.1-0.2,0.1-0.3,0.1s-0.2,0-0.3,0
			c-0.1,0-0.2,0-0.3-0.1c-0.1-0.1-0.1-0.1-0.2-0.2c0-0.1-0.1-0.2-0.1-0.3c0-0.1,0-0.2,0-0.3c0-0.1,0-0.3,0.1-0.5
			c0.1-0.2,0.1-0.4,0.2-0.7c0.1-0.3,0.2-0.6,0.3-1c0.1-0.4,0.2-0.9,0.3-1.5c0.1-0.4,0.1-0.8,0.2-1.2c0.1-0.4,0.1-0.9,0.1-1.4
			c0-0.5,0.1-0.9,0.1-1.4c0-0.5,0-0.9,0-1.3c0-0.1,0-0.3,0.1-0.4c0.1-0.1,0.1-0.2,0.2-0.3c0.1-0.1,0.2-0.2,0.3-0.2
			c0.1-0.1,0.2-0.1,0.3-0.1c0.1,0,0.2,0,0.3,0.1c0.1,0.1,0.2,0.1,0.3,0.3s0.1,0.3,0.2,0.5c0.1,0.2,0.1,0.4,0.1,0.7c0,0.4,0,0.7,0,1
			s0,0.6-0.1,0.9s-0.1,0.6-0.1,0.9c0,0.3-0.1,0.6-0.1,0.9c0.5,0,0.9-0.1,1.2-0.3c0.4-0.2,0.7-0.4,1.1-0.6c0.3-0.2,0.5-0.4,0.8-0.7
			c0.3-0.3,0.5-0.5,0.7-0.8c0.2-0.3,0.4-0.6,0.6-0.8c0.2-0.3,0.3-0.5,0.4-0.7c0.1-0.1,0.1-0.3,0.2-0.4c0.1-0.1,0.2-0.3,0.3-0.4
			c0.1-0.1,0.2-0.2,0.3-0.3c0.1-0.1,0.2-0.1,0.4-0.1c0.1,0,0.2,0,0.4,0.1c0.1,0,0.3,0.1,0.4,0.2c0.1,0.1,0.2,0.2,0.3,0.3
			c0.1,0.1,0.1,0.2,0.1,0.4c0,0.1,0,0.3-0.1,0.4c-0.1,0.2-0.2,0.3-0.4,0.4c-0.2,0.1-0.4,0.3-0.6,0.6c-0.2,0.3-0.5,0.7-0.8,1.2
			c-0.3,0.4-0.6,0.8-1,1.1c-0.4,0.3-0.8,0.7-1.4,1c0.1,0.1,0.2,0.3,0.3,0.5c0.1,0.2,0.2,0.4,0.3,0.7c0.1,0.3,0.2,0.5,0.3,0.8
			c0.1,0.3,0.2,0.5,0.4,0.7c0.1,0.2,0.3,0.4,0.5,0.5s0.5,0.2,0.8,0.2c0.3,0,0.6-0.1,0.9-0.2c0.3-0.1,0.7-0.3,1-0.5
			c0.3-0.2,0.7-0.5,1-0.7s0.7-0.6,1-1c0.3-0.3,0.5-0.5,0.8-0.9c0.3-0.3,0.5-0.6,0.8-0.9c0.3-0.3,0.5-0.6,0.7-0.8s0.4-0.4,0.5-0.6
			c0.2-0.2,0.3-0.4,0.4-0.5s0.2-0.1,0.3-0.1c0.1,0,0.2,0,0.2,0.1C265.5,19.1,265.6,19.2,265.6,19.3z"/>
		<path d="M273.4,23.3c-0.3,1.3-0.6,2.4-0.9,3.3c-0.3,0.9-0.6,1.7-1,2.2c-0.2,0.3-0.5,0.6-0.7,0.9s-0.6,0.5-0.9,0.6
			c-0.3,0.2-0.7,0.3-1.1,0.4c-0.4,0.1-0.8,0.1-1.2,0.1c-0.8,0-1.5-0.1-2.1-0.4c-0.6-0.3-1.2-0.7-1.7-1.3c-0.3-0.4-0.5-0.7-0.5-0.8
			c0-0.3,0-0.5,0.1-0.7s0.2-0.3,0.5-0.3c0,0,0.1,0,0.1,0.1c0,0,0.1,0.1,0.1,0.1s0.1,0.1,0.1,0.1c0,0,0.1,0.1,0.1,0.1
			c0.2,0.2,0.4,0.4,0.6,0.6c0.2,0.2,0.5,0.4,0.7,0.5c0.3,0.2,0.6,0.3,0.9,0.4c0.3,0.1,0.7,0.1,1.1,0.1c0.2,0,0.4,0,0.7-0.1
			c0.2-0.1,0.5-0.1,0.7-0.3c0.2-0.1,0.4-0.2,0.6-0.4c0.2-0.2,0.4-0.3,0.5-0.5c0.2-0.3,0.4-0.6,0.6-1.1s0.4-0.9,0.5-1.4
			s0.3-1,0.4-1.5c0.1-0.5,0.2-0.9,0.3-1.3c0-0.1-0.1-0.2-0.2-0.2l-0.1,0.1c-0.1,0.1-0.2,0.1-0.3,0.2c-0.1,0.1-0.2,0.2-0.3,0.3
			c-0.1,0.1-0.3,0.2-0.4,0.3c-0.2,0.2-0.5,0.3-0.8,0.5s-0.7,0.3-1,0.5c-0.4,0.2-0.7,0.3-1.1,0.4c-0.3,0.1-0.6,0.2-0.9,0.2
			c-0.3,0-0.5,0-0.7-0.1c-0.2-0.1-0.5-0.2-0.7-0.4c-0.4-0.3-0.6-0.6-0.8-0.9c-0.2-0.4-0.3-0.8-0.3-1.2c0-0.4,0.1-0.9,0.2-1.4
			c0-0.2,0.1-0.5,0.2-0.8c0.1-0.3,0.2-0.7,0.3-1c0.1-0.4,0.2-0.7,0.3-1c0.1-0.3,0.2-0.6,0.2-0.8c0-0.1,0.1-0.2,0.1-0.3
			c0-0.1,0.1-0.2,0.1-0.3s0.1-0.2,0.1-0.3s0.1-0.2,0.1-0.2c0-0.1,0.1-0.2,0.2-0.3c0.1-0.1,0.2-0.1,0.3-0.1c0.1,0,0.2,0,0.3,0.1
			s0.2,0.1,0.3,0.2s0.1,0.2,0.2,0.3s0.1,0.2,0.1,0.3c0,0.3-0.1,0.6-0.2,0.9c-0.1,0.4-0.3,0.8-0.4,1.3c-0.1,0.3-0.2,0.5-0.3,0.8
			c-0.1,0.3-0.2,0.5-0.2,0.8c-0.1,0.3-0.1,0.5-0.2,0.7s-0.1,0.4-0.1,0.5c0,0.5,0.1,0.9,0.3,1.2c0.2,0.3,0.5,0.4,0.9,0.4
			c0.5,0,1-0.1,1.6-0.3c0.6-0.2,1.1-0.5,1.6-0.9c0.5-0.4,1-0.8,1.4-1.3s0.7-1,0.9-1.5c0,0,0-0.1,0.1-0.3c0.1-0.2,0.1-0.4,0.2-0.6
			c0.1-0.2,0.2-0.5,0.2-0.8c0.1-0.3,0.2-0.5,0.2-0.8c0.1-0.2,0.1-0.5,0.2-0.6c0.1-0.2,0.1-0.3,0.1-0.3c0-0.1,0.1-0.1,0.1-0.2
			c0.1-0.1,0.1-0.1,0.2-0.2s0.1-0.1,0.2-0.1c0.1,0,0.1-0.1,0.2-0.1c0.1,0,0.3,0,0.4,0.1c0.1,0.1,0.2,0.1,0.2,0.2
			c0.1,0.1,0.1,0.2,0.1,0.3c0,0.1,0,0.2,0,0.4c0,0.2,0,0.4-0.1,0.7c-0.1,0.3-0.1,0.6-0.2,1c-0.1,0.4-0.2,0.8-0.3,1.2
			s-0.3,0.9-0.4,1.3c-0.1,0.5-0.3,0.9-0.4,1.4C273.7,22.3,273.5,22.8,273.4,23.3z"/>
	</g>
</g>
<g id="Слой_2">
	<g>
		<g>
			<g>
				<path d="M137.7,33.6c-0.1,1.3,0.7,2.9,1.4,3.8c0.7,1.3,1.7,2.4,2.9,3.2c0.4,0.3,0.7-0.5,0.4-0.8c-0.9-1-1.6-2.1-2.2-3.4
					c-0.5-1.1-0.7-2.4-1.4-3.4C138.3,32.6,137.7,33,137.7,33.6z"/>
				<path d="M152,43c-1.1-0.4-0.9,0.1-2.2,0.1S147.3,41,146,41c-0.6,0-0.6,2,0,2c1.3,0,2.6,1.2,3.8,1.2c1.1,0,2.4,0.2,3.7-0.1
					C154.2,44.1,152.6,43.2,152,43z"/>
				<path d="M163.3,48.7c-0.5-0.9-1.6-1.5-2.6-2.1c-1.1-0.6-2.4-1.1-3.7-1.4c-0.6-0.1-1,0.6-0.5,0.7c1.1,0.4,2.2,1,3.1,1.6
					c0.1,0,0.1,0.1,0.2,0.1c0.8,0.6,1.6,1.4,2.7,1.8C162.8,49.5,163.4,49,163.3,48.7z"/>
				<path d="M165.5,53.4c-0.3-0.7-1.6-0.4-1.4,0.2c0.6,1.9,0.3,3.9,0.8,5.8c0.2,0.6,1.3,0.6,1.4,0C166.8,57.3,166.4,55.2,165.5,53.4
					z"/>
				<path d="M167.9,68.6c-0.3-1.5-0.5-3-1-4.3c-0.2-0.4-1-0.4-1.1,0c-0.6,2.2-0.2,5.2,0.6,7.3c0.2,0.5,1.1,0.5,1.3,0
					C168.2,70.6,168.2,69.6,167.9,68.6z"/>
				<path d="M167.4,82.4c0-1.4-0.2-2.6-0.3-4c0-0.5-1-0.5-1.1,0c-0.2,1.2-0.3,2.4-0.3,3.5c0,1.2-0.3,2.5,0.2,3.7
					c0.3,0.6,1.3,0.6,1.6,0C167.6,84.7,167.4,83.5,167.4,82.4z"/>
				<path d="M165.8,91.9c-0.5,1-0.8,2-1,3.1c-0.2,1.1-0.5,2.5,0,3.6c0.3,0.6,1.3,0.6,1.4,0c0.5-1,0.2-2.1,0.2-3.2
					c0-1.1,0.2-2.2,0.5-3.2C167.2,91.5,166.1,91.2,165.8,91.9z"/>
				<path d="M174.1,97.1c-1.8,2.5-3.5,5.2-5.6,7.6c-0.8,0.9-2.2,1.1-3.3,0.5c-2-1.2-3.8-2.4-5.4-4.1c-1-1-2.2,0-2.1,0.6l0,0l0,0
					c0,0.1,0,0.1,0.2,0.2c1.1,3.1,5.3,4.6,8.2,6.7c0.6,0.5,1.6,0.5,2.2,0c3.7-3,6.3-6.7,8.5-10.6C177.6,97,175.1,95.7,174.1,97.1z"
					/>
			</g>
		</g>
	</g>
</g>
</svg>
